<?xml version="1.0" encoding="UTF-8" standalone="no"?>
<!DOCTYPE svg PUBLIC "-//W3C//DTD SVG 1.1//EN" "http://www.w3.org/Graphics/SVG/1.1/DTD/svg11.dtd">
<svg width="100%" height="100%" viewBox="0 0 681 151" version="1.1" xmlns="http://www.w3.org/2000/svg" xmlns:xlink="http://www.w3.org/1999/xlink" xml:space="preserve" xmlns:serif="http://www.serif.com/" style="fill-rule:evenodd;clip-rule:evenodd;stroke-linejoin:round;stroke-miterlimit:2;">
    <g id="Layer1">
        <rect x="-9.7" y="-16.724" width="690.04" height="208.933" style="fill:white;"/>
    </g>
    <g>
        <g transform="matrix(1,0,0,1,-49.98,-502.35)">
            <rect x="74.97" y="521.22" width="655.35" height="10.2" style="fill:rgb(191,143,0);"/>
        </g>
        <g transform="matrix(1,0,0,1,-49.98,-483.48)">
            <rect x="74.97" y="512.04" width="600.78" height="9.69" style="fill:rgb(244,176,132);"/>
        </g>
        <g transform="matrix(1,0,0,1,-49.98,-483.48)">
            <rect x="675.24" y="512.04" width="55.08" height="9.69" style="fill:rgb(191,143,0);"/>
        </g>
        <g transform="matrix(1,0,0,1,-49.98,-465.12)">
            <rect x="74.97" y="502.86" width="600.78" height="9.69" style="fill:rgb(248,203,173);"/>
        </g>
        <g transform="matrix(1,0,0,1,-49.98,-465.12)">
            <rect x="675.24" y="502.86" width="55.08" height="9.69" style="fill:rgb(191,143,0);"/>
        </g>
        <g transform="matrix(1,0,0,1,-49.98,-446.25)">
            <rect x="74.97" y="493.17" width="600.78" height="10.2" style="fill:rgb(252,228,214);"/>
        </g>
        <g transform="matrix(1,0,0,1,-49.98,-446.25)">
            <rect x="675.24" y="493.17" width="55.08" height="10.2" style="fill:rgb(191,143,0);"/>
        </g>
        <g transform="matrix(1,0,0,1,-49.98,-427.38)">
            <rect x="74.97" y="483.99" width="600.78" height="9.69" style="fill:rgb(142,169,219);"/>
        </g>
        <g transform="matrix(1,0,0,1,-49.98,-427.38)">
            <rect x="675.24" y="483.99" width="55.08" height="9.69" style="fill:rgb(191,143,0);"/>
        </g>
        <g transform="matrix(1,0,0,1,-49.98,-409.02)">
            <rect x="74.97" y="474.81" width="600.78" height="9.69" style="fill:rgb(180,198,231);"/>
        </g>
        <g transform="matrix(1,0,0,1,-49.98,-409.02)">
            <rect x="675.24" y="474.81" width="55.08" height="9.69" style="fill:rgb(191,143,0);"/>
        </g>
        <g transform="matrix(1,0,0,1,-49.98,-390.15)">
            <rect x="74.97" y="465.12" width="600.78" height="10.2" style="fill:rgb(221,235,247);"/>
        </g>
        <g transform="matrix(1,0,0,1,-49.98,-390.15)">
            <rect x="675.24" y="465.12" width="55.08" height="10.2" style="fill:rgb(191,143,0);"/>
        </g>
        <g transform="matrix(1,0,0,1,-49.98,-371.28)">
            <rect x="74.97" y="455.94" width="655.35" height="9.69" style="fill:rgb(191,143,0);"/>
        </g>
        <g transform="matrix(1,0,0,1,-49.98,-321.81)">
            <rect x="184.11" y="431.97" width="55.08" height="8.16" style="fill:rgb(244,176,132);"/>
        </g>
        <g transform="matrix(1,0,0,1,-49.98,-321.81)">
            <rect x="238.68" y="431.97" width="55.08" height="8.16" style="fill:rgb(142,169,219);"/>
        </g>
        <g transform="matrix(1,0,0,1,-49.98,-306.51)">
            <rect x="184.11" y="424.32" width="55.08" height="8.16" style="fill:rgb(248,203,173);"/>
        </g>
        <g transform="matrix(1,0,0,1,-49.98,-306.51)">
            <rect x="238.68" y="424.32" width="55.08" height="8.16" style="fill:rgb(180,198,231);"/>
        </g>
        <g transform="matrix(1,0,0,1,-49.98,-290.7)">
            <rect x="184.11" y="416.16" width="55.08" height="8.67" style="fill:rgb(252,228,214);"/>
        </g>
        <g transform="matrix(1,0,0,1,-49.98,-290.7)">
            <rect x="238.68" y="416.16" width="55.08" height="8.67" style="fill:rgb(221,235,247);"/>
        </g>
        <g transform="matrix(1,0,0,1,-49.98,-258.06)">
            <rect x="184.11" y="399.84" width="55.08" height="8.67" style="fill:rgb(191,143,0);"/>
        </g>
        <g transform="matrix(1,0,0,1,-49.98,-61.71)">
            <text x="77.01px" y="69.36px" style="font-family:'Arial-BoldMT', 'Arial', sans-serif;font-weight:700;font-size:8.16px;">s</text>
            <text x="81.6px" y="69.36px" style="font-family:'Arial-BoldMT', 'Arial', sans-serif;font-weight:700;font-size:8.16px;">t</text>
            <text x="84.15px" y="69.36px" style="font-family:'Arial-BoldMT', 'Arial', sans-serif;font-weight:700;font-size:8.16px;">o<tspan x="89.254px " y="69.36px ">o</tspan></text>
            <text x="94.358px" y="69.36px" style="font-family:'Arial-BoldMT', 'Arial', sans-serif;font-weight:700;font-size:8.16px;">l</text>
            <text x="98.43px" y="69.36px" style="font-family:'Arial-BoldMT', 'Arial', sans-serif;font-weight:700;font-size:8.16px;">d</text>
            <text x="103.534px" y="69.36px" style="font-family:'Arial-BoldMT', 'Arial', sans-serif;font-weight:700;font-size:8.16px;">i<tspan x="105.57px " y="69.36px ">l</tspan></text>
            <text x="107.606px" y="69.36px" style="font-family:'Arial-BoldMT', 'Arial', sans-serif;font-weight:700;font-size:8.16px;">u</text>
            <text x="112.71px" y="69.36px" style="font-family:'Arial-BoldMT', 'Arial', sans-serif;font-weight:700;font-size:8.16px;">t</text>
            <text x="115.26px" y="69.36px" style="font-family:'Arial-BoldMT', 'Arial', sans-serif;font-weight:700;font-size:8.16px;">i</text>
            <text x="117.296px" y="69.36px" style="font-family:'Arial-BoldMT', 'Arial', sans-serif;font-weight:700;font-size:8.16px;">o<tspan x="122.4px " y="69.36px ">n</tspan></text>
        </g>
        <g transform="matrix(1,0,0,1,-49.98,-61.71)">
            <text x="148.41px" y="69.36px" style="font-family:'Arial-BoldMT', 'Arial', sans-serif;font-weight:700;font-size:6.12px;">W</text>
            <text x="154.02px" y="69.36px" style="font-family:'Arial-BoldMT', 'Arial', sans-serif;font-weight:700;font-size:6.12px;">a</text>
            <text x="157.592px" y="69.36px" style="font-family:'Arial-BoldMT', 'Arial', sans-serif;font-weight:700;font-size:6.12px;">t</text>
            <text x="159.635px" y="69.36px" style="font-family:'Arial-BoldMT', 'Arial', sans-serif;font-weight:700;font-size:6.12px;">e<tspan x="163.207px " y="69.36px ">r</tspan></text>
        </g>
        <g transform="matrix(1,0,0,1,-49.98,-61.71)">
            <text x="187.68px" y="69.36px" style="font-family:'Arial-BoldMT', 'Arial', sans-serif;font-weight:700;font-size:6.12px;">A<tspan x="192.268px 194.818px " y="69.36px 69.36px ">ra</tspan></text>
            <text x="198.39px" y="69.36px" style="font-family:'Arial-BoldMT', 'Arial', sans-serif;font-weight:700;font-size:6.12px;">b<tspan x="201.958px 203.488px 207.056px 210.624px " y="69.36px 69.36px 69.36px 69.36px ">inog</tspan></text>
            <text x="214.192px" y="69.36px" style="font-family:'Arial-BoldMT', 'Arial', sans-serif;font-weight:700;font-size:6.12px;">a</text>
            <text x="217.76px" y="69.36px" style="font-family:'Arial-BoldMT', 'Arial', sans-serif;font-weight:700;font-size:6.12px;">l</text>
            <text x="219.29px" y="69.36px" style="font-family:'Arial-BoldMT', 'Arial', sans-serif;font-weight:700;font-size:6.12px;">a<tspan x="222.858px " y="69.36px ">c</tspan></text>
            <text x="226.426px" y="69.36px" style="font-family:'Arial-BoldMT', 'Arial', sans-serif;font-weight:700;font-size:6.12px;">t</text>
            <text x="228.464px" y="69.36px" style="font-family:'Arial-BoldMT', 'Arial', sans-serif;font-weight:700;font-size:6.12px;">a<tspan x="232.032px " y="69.36px ">n</tspan></text>
        </g>
        <g transform="matrix(1,0,0,1,-49.98,-61.71)">
            <text x="257.04px" y="69.36px" style="font-family:'Arial-BoldMT', 'Arial', sans-serif;font-weight:700;font-size:6.12px;">P</text>
            <text x="261.12px" y="69.36px" style="font-family:'Arial-BoldMT', 'Arial', sans-serif;font-weight:700;font-size:6.12px;">e<tspan x="264.692px " y="69.36px ">c</tspan></text>
            <text x="268.265px" y="69.36px" style="font-family:'Arial-BoldMT', 'Arial', sans-serif;font-weight:700;font-size:6.12px;">t</text>
            <text x="270.307px" y="69.36px" style="font-family:'Arial-BoldMT', 'Arial', sans-serif;font-weight:700;font-size:6.12px;">i<tspan x="271.835px " y="69.36px ">n</tspan></text>
        </g>
        <g transform="matrix(1,0,0,1,-49.98,-61.71)">
            <text x="297.84px" y="69.36px" style="font-family:'Arial-BoldMT', 'Arial', sans-serif;font-weight:700;font-size:6.12px;">P</text>
            <text x="301.92px" y="69.36px" style="font-family:'Arial-BoldMT', 'Arial', sans-serif;font-weight:700;font-size:6.12px;">e<tspan x="305.492px " y="69.36px ">c</tspan></text>
            <text x="309.065px" y="69.36px" style="font-family:'Arial-BoldMT', 'Arial', sans-serif;font-weight:700;font-size:6.12px;">t</text>
            <text x="311.107px" y="69.36px" style="font-family:'Arial-BoldMT', 'Arial', sans-serif;font-weight:700;font-size:6.12px;">i</text>
            <text x="312.635px" y="69.36px" style="font-family:'Arial-BoldMT', 'Arial', sans-serif;font-weight:700;font-size:6.12px;">c</text>
            <text x="318.076px" y="69.36px" style="font-family:'Arial-BoldMT', 'Arial', sans-serif;font-weight:700;font-size:6.12px;">G</text>
            <text x="322.664px" y="69.36px" style="font-family:'Arial-BoldMT', 'Arial', sans-serif;font-weight:700;font-size:6.12px;">a</text>
            <text x="326.237px" y="69.36px" style="font-family:'Arial-BoldMT', 'Arial', sans-serif;font-weight:700;font-size:6.12px;">l</text>
            <text x="327.765px" y="69.36px" style="font-family:'Arial-BoldMT', 'Arial', sans-serif;font-weight:700;font-size:6.12px;">a<tspan x="331.337px " y="69.36px ">c</tspan></text>
            <text x="334.909px" y="69.36px" style="font-family:'Arial-BoldMT', 'Arial', sans-serif;font-weight:700;font-size:6.12px;">t</text>
            <text x="336.952px" y="69.36px" style="font-family:'Arial-BoldMT', 'Arial', sans-serif;font-weight:700;font-size:6.12px;">a<tspan x="340.524px " y="69.36px ">n</tspan></text>
        </g>
        <g transform="matrix(1,0,0,1,-49.98,-61.71)">
            <text x="360.06px" y="69.36px" style="font-family:'Arial-BoldMT', 'Arial', sans-serif;font-weight:700;font-size:6.12px;">C<tspan x="364.647px " y="69.36px ">e</tspan></text>
            <text x="368.218px" y="69.36px" style="font-family:'Arial-BoldMT', 'Arial', sans-serif;font-weight:700;font-size:6.12px;">l<tspan x="369.748px 371.278px 374.846px 378.414px 379.944px " y="69.36px 69.36px 69.36px 69.36px 69.36px ">lobio</tspan></text>
            <text x="383.512px" y="69.36px" style="font-family:'Arial-BoldMT', 'Arial', sans-serif;font-weight:700;font-size:6.12px;">s<tspan x="387.08px " y="69.36px ">e</tspan></text>
        </g>
        <g transform="matrix(1,0,0,1,-49.98,-61.71)">
            <text x="416.67px" y="69.36px" style="font-family:'Arial-BoldMT', 'Arial', sans-serif;font-weight:700;font-size:6.12px;">A<tspan x="421.258px 423.808px " y="69.36px 69.36px ">ra</tspan></text>
            <text x="427.38px" y="69.36px" style="font-family:'Arial-BoldMT', 'Arial', sans-serif;font-weight:700;font-size:6.12px;">b<tspan x="430.948px 432.478px " y="69.36px 69.36px ">in</tspan></text>
            <text x="436.046px" y="69.36px" style="font-family:'Arial-BoldMT', 'Arial', sans-serif;font-weight:700;font-size:6.12px;">a<tspan x="439.614px " y="69.36px ">n</tspan></text>
        </g>
        <g transform="matrix(1,0,0,1,-49.98,-61.71)">
            <text x="476.85px" y="69.36px" style="font-family:'Arial-BoldMT', 'Arial', sans-serif;font-weight:700;font-size:6.12px;">I<tspan x="478.38px 481.948px 485.516px 487.046px 488.576px " y="69.36px 69.36px 69.36px 69.36px 69.36px ">nulin</tspan></text>
        </g>
        <g transform="matrix(1,0,0,1,-49.98,-61.71)">
            <text x="527.34px" y="69.36px" style="font-family:'Arial-BoldMT', 'Arial', sans-serif;font-weight:700;font-size:6.12px;">D<tspan x="531.926px 535.496px " y="69.36px 69.36px ">ex</tspan></text>
            <text x="539.066px" y="69.36px" style="font-family:'Arial-BoldMT', 'Arial', sans-serif;font-weight:700;font-size:6.12px;">t</text>
            <text x="541.104px" y="69.36px" style="font-family:'Arial-BoldMT', 'Arial', sans-serif;font-weight:700;font-size:6.12px;">r<tspan x="543.653px 547.224px " y="69.36px 69.36px ">an</tspan></text>
        </g>
        <g transform="matrix(1,0,0,1,-49.98,-61.71)">
            <text x="578.85px" y="69.36px" style="font-family:'Arial-BoldMT', 'Arial', sans-serif;font-weight:700;font-size:6.12px;">A<tspan x="583.438px 585.988px " y="69.36px 69.36px ">ra</tspan></text>
            <text x="589.56px" y="69.36px" style="font-family:'Arial-BoldMT', 'Arial', sans-serif;font-weight:700;font-size:6.12px;">b<tspan x="593.128px 594.658px 598.226px " y="69.36px 69.36px 69.36px ">ino</tspan></text>
            <text x="601.794px" y="69.36px" style="font-family:'Arial-BoldMT', 'Arial', sans-serif;font-weight:700;font-size:6.12px;">s<tspan x="605.362px " y="69.36px ">e</tspan></text>
        </g>
        <g transform="matrix(1,0,0,1,-49.98,-61.71)">
            <text x="641.58px" y="69.36px" style="font-family:'Arial-BoldMT', 'Arial', sans-serif;font-weight:700;font-size:6.12px;">M</text>
            <text x="646.68px" y="69.36px" style="font-family:'Arial-BoldMT', 'Arial', sans-serif;font-weight:700;font-size:6.12px;">C<tspan x="651.272px " y="69.36px ">F</tspan></text>
        </g>
        <g transform="matrix(1,0,0,1,-49.98,-61.71)">
            <text x="100.47px" y="79.05px" style="font-family:'Arial-BoldMT', 'Arial', sans-serif;font-weight:700;font-size:8.16px;">1</text>
        </g>
        <g transform="matrix(1,0,0,1,-49.98,-61.71)">
            <text x="155.04px" y="79.05px" style="font-family:'Arial-BoldMT', 'Arial', sans-serif;font-weight:700;font-size:8.16px;">2</text>
        </g>
        <g transform="matrix(1,0,0,1,-49.98,-61.71)">
            <text x="209.61px" y="79.05px" style="font-family:'Arial-BoldMT', 'Arial', sans-serif;font-weight:700;font-size:8.16px;">3</text>
        </g>
        <g transform="matrix(1,0,0,1,-49.98,-61.71)">
            <text x="264.18px" y="79.05px" style="font-family:'Arial-BoldMT', 'Arial', sans-serif;font-weight:700;font-size:8.16px;">4</text>
        </g>
        <g transform="matrix(1,0,0,1,-49.98,-61.71)">
            <text x="318.75px" y="79.05px" style="font-family:'Arial-BoldMT', 'Arial', sans-serif;font-weight:700;font-size:8.16px;">5</text>
        </g>
        <g transform="matrix(1,0,0,1,-49.98,-61.71)">
            <text x="373.32px" y="79.05px" style="font-family:'Arial-BoldMT', 'Arial', sans-serif;font-weight:700;font-size:8.16px;">6</text>
        </g>
        <g transform="matrix(1,0,0,1,-49.98,-61.71)">
            <text x="427.89px" y="79.05px" style="font-family:'Arial-BoldMT', 'Arial', sans-serif;font-weight:700;font-size:8.16px;">7</text>
        </g>
        <g transform="matrix(1,0,0,1,-49.98,-61.71)">
            <text x="482.46px" y="79.05px" style="font-family:'Arial-BoldMT', 'Arial', sans-serif;font-weight:700;font-size:8.16px;">8</text>
        </g>
        <g transform="matrix(1,0,0,1,-49.98,-61.71)">
            <text x="537.03px" y="79.05px" style="font-family:'Arial-BoldMT', 'Arial', sans-serif;font-weight:700;font-size:8.16px;">9</text>
        </g>
        <g transform="matrix(1,0,0,1,-49.98,-61.71)">
            <text x="589.05px" y="79.05px" style="font-family:'Arial-BoldMT', 'Arial', sans-serif;font-weight:700;font-size:8.16px;">10</text>
        </g>
        <g transform="matrix(1,0,0,1,-49.98,-61.71)">
            <text x="643.62px" y="79.05px" style="font-family:'Arial-BoldMT', 'Arial', sans-serif;font-weight:700;font-size:8.16px;">11</text>
        </g>
        <g transform="matrix(1,0,0,1,-49.98,-61.71)">
            <text x="698.19px" y="79.05px" style="font-family:'Arial-BoldMT', 'Arial', sans-serif;font-weight:700;font-size:8.16px;">12</text>
        </g>
        <g transform="matrix(1,0,0,1,-49.98,-61.71)">
            <text x="59.67px" y="88.23px" style="font-family:'Arial-BoldMT', 'Arial', sans-serif;font-weight:700;font-size:8.16px;">A</text>
            <text x="59.67px" y="97.92px" style="font-family:'Arial-BoldMT', 'Arial', sans-serif;font-weight:700;font-size:8.16px;">B</text>
        </g>
        <g transform="matrix(1,0,0,1,-49.98,-61.71)">
            <text x="92.31px" y="97.92px" style="font-family:'Arial-BoldMT', 'Arial', sans-serif;font-weight:700;font-size:6.12px;">j</text>
            <text x="93.84px" y="97.92px" style="font-family:'Arial-BoldMT', 'Arial', sans-serif;font-weight:700;font-size:6.12px;">x<tspan x="97.408px " y="97.92px ">e</tspan></text>
            <text x="100.976px" y="97.92px" style="font-family:'Arial-BoldMT', 'Arial', sans-serif;font-weight:700;font-size:6.12px;">.</text>
            <text x="102.506px" y="97.92px" style="font-family:'Arial-BoldMT', 'Arial', sans-serif;font-weight:700;font-size:6.12px;">0<tspan x="106.074px 109.642px " y="97.92px 97.92px ">67</tspan></text>
        </g>
        <g transform="matrix(1,0,0,1,-49.98,-61.71)">
            <text x="59.67px" y="107.1px" style="font-family:'Arial-BoldMT', 'Arial', sans-serif;font-weight:700;font-size:8.16px;">C</text>
            <text x="59.67px" y="116.28px" style="font-family:'Arial-BoldMT', 'Arial', sans-serif;font-weight:700;font-size:8.16px;">D</text>
            <text x="60.18px" y="125.97px" style="font-family:'Arial-BoldMT', 'Arial', sans-serif;font-weight:700;font-size:8.16px;">E</text>
        </g>
        <g transform="matrix(1,0,0,1,-49.98,-61.71)">
            <text x="92.31px" y="125.97px" style="font-family:'Arial-BoldMT', 'Arial', sans-serif;font-weight:700;font-size:6.12px;">j</text>
            <text x="93.84px" y="125.97px" style="font-family:'Arial-BoldMT', 'Arial', sans-serif;font-weight:700;font-size:6.12px;">x<tspan x="97.408px " y="125.97px ">e</tspan></text>
            <text x="100.976px" y="125.97px" style="font-family:'Arial-BoldMT', 'Arial', sans-serif;font-weight:700;font-size:6.12px;">.</text>
            <text x="102.506px" y="125.97px" style="font-family:'Arial-BoldMT', 'Arial', sans-serif;font-weight:700;font-size:6.12px;">0<tspan x="106.074px 109.642px " y="125.97px 125.97px ">70</tspan></text>
        </g>
        <g transform="matrix(1,0,0,1,-49.98,-61.71)">
            <text x="60.18px" y="135.15px" style="font-family:'Arial-BoldMT', 'Arial', sans-serif;font-weight:700;font-size:8.16px;">F</text>
            <text x="59.67px" y="144.33px" style="font-family:'Arial-BoldMT', 'Arial', sans-serif;font-weight:700;font-size:8.16px;">G</text>
            <text x="59.67px" y="154.02px" style="font-family:'Arial-BoldMT', 'Arial', sans-serif;font-weight:700;font-size:8.16px;">H</text>
        </g>
        <g transform="matrix(1,0,0,1,-49.98,-61.71)">
            <text x="207.06px" y="169.83px" style="font-family:'ArialMT', 'Arial', sans-serif;font-size:6.12px;">J</text>
            <text x="210.12px" y="169.83px" style="font-family:'ArialMT', 'Arial', sans-serif;font-size:6.12px;">a<tspan x="213.69px " y="169.83px ">x</tspan></text>
        </g>
        <g transform="matrix(1,0,0,1,-49.98,-61.71)">
            <text x="256.53px" y="169.83px" style="font-family:'ArialMT', 'Arial', sans-serif;font-size:6.12px;">E</text>
            <text x="260.61px" y="169.83px" style="font-family:'ArialMT', 'Arial', sans-serif;font-size:6.12px;">n</text>
            <text x="264.18px" y="169.83px" style="font-family:'ArialMT', 'Arial', sans-serif;font-size:6.12px;">v</text>
            <text x="267.24px" y="169.83px" style="font-family:'ArialMT', 'Arial', sans-serif;font-size:6.12px;">i<tspan x="268.768px 272.34px " y="169.83px 169.83px ">go</tspan></text>
        </g>
        <g transform="matrix(1,0,0,1,-49.98,-61.71)">
            <text x="294.78px" y="169.83px" style="font-family:'ArialMT', 'Arial', sans-serif;font-size:6.12px;">S</text>
            <text x="298.86px" y="169.83px" style="font-family:'ArialMT', 'Arial', sans-serif;font-size:6.12px;">t</text>
            <text x="300.388px" y="169.83px" style="font-family:'ArialMT', 'Arial', sans-serif;font-size:6.12px;">o<tspan x="303.961px 307.533px " y="169.83px 169.83px ">ol</tspan></text>
            <text x="310.93px" y="169.83px" style="font-family:'ArialMT', 'Arial', sans-serif;font-size:6.12px;">I</text>
            <text x="312.458px" y="169.83px" style="font-family:'ArialMT', 'Arial', sans-serif;font-size:6.12px;">n<tspan x="316.03px 319.603px 323.175px " y="169.83px 169.83px 169.83px ">put</tspan></text>
        </g>
        <g transform="matrix(1,0,0,1,-49.98,-61.71)">
            <text x="201.45px" y="177.99px" style="font-family:'Arial-BoldMT', 'Arial', sans-serif;font-weight:700;font-size:6.12px;">j</text>
            <text x="202.98px" y="177.99px" style="font-family:'Arial-BoldMT', 'Arial', sans-serif;font-weight:700;font-size:6.12px;">x<tspan x="206.548px " y="177.99px ">e</tspan></text>
            <text x="210.116px" y="177.99px" style="font-family:'Arial-BoldMT', 'Arial', sans-serif;font-weight:700;font-size:6.12px;">.</text>
            <text x="211.646px" y="177.99px" style="font-family:'Arial-BoldMT', 'Arial', sans-serif;font-weight:700;font-size:6.12px;">0<tspan x="215.214px 218.782px " y="177.99px 177.99px ">67</tspan></text>
        </g>
        <g transform="matrix(1,0,0,1,-49.98,-61.71)">
            <text x="256.02px" y="177.99px" style="font-family:'Arial-BoldMT', 'Arial', sans-serif;font-weight:700;font-size:6.12px;">j</text>
            <text x="257.55px" y="177.99px" style="font-family:'Arial-BoldMT', 'Arial', sans-serif;font-weight:700;font-size:6.12px;">x<tspan x="261.118px " y="177.99px ">e</tspan></text>
            <text x="264.686px" y="177.99px" style="font-family:'Arial-BoldMT', 'Arial', sans-serif;font-weight:700;font-size:6.12px;">.</text>
            <text x="266.216px" y="177.99px" style="font-family:'Arial-BoldMT', 'Arial', sans-serif;font-weight:700;font-size:6.12px;">0<tspan x="269.784px 273.352px " y="177.99px 177.99px ">70</tspan></text>
        </g>
        <g transform="matrix(1,0,0,1,-49.98,-61.71)">
            <text x="294.78px" y="177.99px" style="font-family:'ArialMT', 'Arial', sans-serif;font-size:6.12px;">5<tspan x="298.35px 301.92px 305.489px 307.356px " y="177.99px 177.99px 177.99px 177.99px ">uL o</tspan></text>
            <text x="310.926px" y="177.99px" style="font-family:'ArialMT', 'Arial', sans-serif;font-size:6.12px;">f</text>
            <text x="313.989px" y="177.99px" style="font-family:'ArialMT', 'Arial', sans-serif;font-size:6.12px;">1<tspan x="317.567px 321.145px 324.191px " y="177.99px 177.99px 177.99px ">0^0</tspan></text>
            <text x="294.78px" y="185.64px" style="font-family:'ArialMT', 'Arial', sans-serif;font-size:6.12px;">5<tspan x="298.35px 301.92px 305.489px 307.356px " y="185.64px 185.64px 185.64px 185.64px ">uL o</tspan></text>
            <text x="310.926px" y="185.64px" style="font-family:'ArialMT', 'Arial', sans-serif;font-size:6.12px;">f</text>
            <text x="313.989px" y="185.64px" style="font-family:'ArialMT', 'Arial', sans-serif;font-size:6.12px;">1<tspan x="317.567px 321.145px " y="185.64px 185.64px ">0^</tspan></text>
            <text x="324.191px" y="185.64px" style="font-family:'ArialMT', 'Arial', sans-serif;font-size:6.12px;">-1</text>
            <text x="294.78px" y="193.29px" style="font-family:'ArialMT', 'Arial', sans-serif;font-size:6.12px;">5<tspan x="298.35px 301.92px 305.489px 307.356px " y="193.29px 193.29px 193.29px 193.29px ">uL o</tspan></text>
            <text x="310.926px" y="193.29px" style="font-family:'ArialMT', 'Arial', sans-serif;font-size:6.12px;">f</text>
            <text x="313.989px" y="193.29px" style="font-family:'ArialMT', 'Arial', sans-serif;font-size:6.12px;">1<tspan x="317.567px 321.145px " y="193.29px 193.29px ">0^</tspan></text>
            <text x="324.191px" y="193.29px" style="font-family:'ArialMT', 'Arial', sans-serif;font-size:6.12px;">-2</text>
        </g>
        <g transform="matrix(1,0,0,1,-49.98,-61.71)">
            <text x="257.04px" y="209.61px" style="font-family:'ArialMT', 'Arial', sans-serif;font-size:6.12px;">M</text>
            <text x="262.14px" y="209.61px" style="font-family:'ArialMT', 'Arial', sans-serif;font-size:6.12px;">G</text>
            <text x="266.732px" y="209.61px" style="font-family:'ArialMT', 'Arial', sans-serif;font-size:6.12px;">AM</text>
        </g>
        <g transform="matrix(1,0,0,1,-49.98,-492.66)">
            <rect x="50.49" y="521.22" width="23.97" height="0.51"/>
        </g>
        <g transform="matrix(1,0,0,1,-49.98,-522.24)">
            <rect x="74.97" y="522.24" width="0.51" height="28.05"/>
        </g>
        <g transform="matrix(1,0,0,1,-49.98,-493.17)">
            <rect x="75.48" y="521.22" width="54.57" height="1.02"/>
        </g>
        <g transform="matrix(1,0,0,1,-49.98,-521.73)">
            <rect x="129.54" y="522.24" width="0.51" height="27.54"/>
        </g>
        <g transform="matrix(1,0,0,1,-49.98,-474.3)">
            <rect x="50.49" y="512.04" width="23.97" height="0.51"/>
        </g>
        <g transform="matrix(1,0,0,1,-49.98,-474.3)">
            <rect x="75.48" y="512.04" width="53.55" height="0.51"/>
        </g>
        <g transform="matrix(1,0,0,1,-49.98,-455.94)">
            <rect x="50.49" y="502.86" width="23.97" height="0.51"/>
        </g>
        <g transform="matrix(1,0,0,1,-49.98,-455.94)">
            <rect x="75.48" y="502.86" width="53.55" height="0.51"/>
        </g>
        <g transform="matrix(1,0,0,1,-49.98,-436.56)">
            <rect x="50.49" y="493.17" width="23.97" height="0.51"/>
        </g>
        <g transform="matrix(1,0,0,1,-49.98,-437.07)">
            <rect x="75.48" y="493.17" width="54.57" height="1.02"/>
        </g>
        <g transform="matrix(1,0,0,1,-49.98,-418.2)">
            <rect x="50.49" y="483.99" width="23.97" height="0.51"/>
        </g>
        <g transform="matrix(1,0,0,1,-49.98,-418.2)">
            <rect x="75.48" y="483.99" width="53.55" height="0.51"/>
        </g>
        <g transform="matrix(1,0,0,1,-49.98,-399.84)">
            <rect x="50.49" y="474.81" width="23.97" height="0.51"/>
        </g>
        <g transform="matrix(1,0,0,1,-49.98,-399.84)">
            <rect x="75.48" y="474.81" width="53.55" height="0.51"/>
        </g>
        <g transform="matrix(1,0,0,1,-49.98,-380.46)">
            <rect x="50.49" y="465.12" width="23.97" height="0.51"/>
        </g>
        <g transform="matrix(1,0,0,1,-49.98,-437.07)">
            <rect x="74.46" y="465.12" width="1.02" height="57.12"/>
        </g>
        <g transform="matrix(1,0,0,1,-49.98,-380.97)">
            <rect x="75.48" y="465.12" width="54.57" height="1.02"/>
        </g>
        <g transform="matrix(1,0,0,1,-49.98,-436.05)">
            <rect x="129.03" y="465.12" width="1.02" height="56.1"/>
        </g>
        <g transform="matrix(1,0,0,1,-49.98,-455.43)">
            <rect x="184.11" y="455.94" width="0.51" height="93.84"/>
        </g>
        <g transform="matrix(1,0,0,1,-49.98,-455.43)">
            <rect x="238.68" y="455.94" width="0.51" height="93.84"/>
        </g>
        <g transform="matrix(1,0,0,1,-49.98,-455.43)">
            <rect x="293.25" y="455.94" width="0.51" height="93.84"/>
        </g>
        <g transform="matrix(1,0,0,1,-49.98,-455.43)">
            <rect x="347.82" y="455.94" width="0.51" height="93.84"/>
        </g>
        <g transform="matrix(1,0,0,1,-49.98,-337.11)">
            <rect x="238.17" y="439.62" width="1.02" height="8.16"/>
        </g>
        <g transform="matrix(1,0,0,1,-49.98,-337.11)">
            <rect x="292.74" y="439.62" width="1.02" height="8.16"/>
        </g>
        <g transform="matrix(1,0,0,1,-49.98,-314.67)">
            <rect x="183.6" y="416.16" width="1.02" height="32.64"/>
        </g>
        <g transform="matrix(1,0,0,1,-49.98,-306.51)">
            <rect x="238.68" y="417.18" width="0.51" height="22.44"/>
        </g>
        <g transform="matrix(1,0,0,1,-49.98,-306.51)">
            <rect x="293.25" y="417.18" width="0.51" height="22.44"/>
        </g>
        <g transform="matrix(1,0,0,1,-49.98,-370.77)">
            <rect x="74.97" y="455.94" width="0.51" height="9.18"/>
        </g>
        <g transform="matrix(1,0,0,1,-49.98,-370.77)">
            <rect x="129.54" y="455.94" width="0.51" height="9.18"/>
        </g>
        <g transform="matrix(1,0,0,1,-49.98,-258.57)">
            <rect x="183.6" y="399.84" width="1.02" height="9.18"/>
        </g>
        <g transform="matrix(1,0,0,1,-49.98,-258.57)">
            <rect x="238.68" y="400.86" width="0.51" height="7.14"/>
        </g>
        <g transform="matrix(1,0,0,1,-49.98,-257.55)">
            <rect x="292.74" y="399.84" width="1.02" height="8.16"/>
        </g>
        <g transform="matrix(1,0,0,1,-49.98,-313.65)">
            <rect x="347.31" y="416.16" width="1.02" height="31.62"/>
        </g>
        <g transform="matrix(1,0,0,1,-49.98,-455.43)">
            <rect x="402.39" y="455.94" width="0.51" height="93.84"/>
        </g>
        <g transform="matrix(1,0,0,1,-49.98,-455.43)">
            <rect x="456.96" y="455.94" width="0.51" height="93.84"/>
        </g>
        <g transform="matrix(1,0,0,1,-49.98,-455.43)">
            <rect x="511.53" y="455.94" width="0.51" height="93.84"/>
        </g>
        <g transform="matrix(1,0,0,1,-49.98,-455.43)">
            <rect x="566.1" y="455.94" width="0.51" height="93.84"/>
        </g>
        <g transform="matrix(1,0,0,1,-49.98,-455.43)">
            <rect x="620.67" y="455.94" width="0.51" height="93.84"/>
        </g>
        <g transform="matrix(1,0,0,1,-49.98,-455.43)">
            <rect x="675.24" y="455.94" width="0.51" height="93.84"/>
        </g>
        <g transform="matrix(1,0,0,1,-49.98,-445.74)">
            <rect x="729.81" y="455.94" width="0.51" height="84.15"/>
        </g>
        <g transform="matrix(1,0,0,1,-49.98,-437.07)">
            <rect x="49.98" y="455.94" width="0.51" height="75.48"/>
        </g>
        <g transform="matrix(1,0,0,1,-49.98,-549.78)">
            <rect x="75.48" y="549.78" width="600.27" height="0.51"/>
        </g>
        <g transform="matrix(1,0,0,1,-49.98,-530.4)">
            <rect x="75.48" y="540.09" width="654.84" height="0.51"/>
        </g>
        <g transform="matrix(1,0,0,1,-49.98,-512.04)">
            <rect x="50.49" y="530.91" width="679.83" height="0.51"/>
        </g>
        <g transform="matrix(1,0,0,1,-49.98,-492.66)">
            <rect x="130.05" y="521.22" width="600.27" height="0.51"/>
        </g>
        <g transform="matrix(1,0,0,1,-49.98,-474.3)">
            <rect x="130.05" y="512.04" width="600.27" height="0.51"/>
        </g>
        <g transform="matrix(1,0,0,1,-49.98,-455.94)">
            <rect x="130.05" y="502.86" width="600.27" height="0.51"/>
        </g>
        <g transform="matrix(1,0,0,1,-49.98,-436.56)">
            <rect x="130.05" y="493.17" width="600.27" height="0.51"/>
        </g>
        <g transform="matrix(1,0,0,1,-49.98,-418.2)">
            <rect x="130.05" y="483.99" width="600.27" height="0.51"/>
        </g>
        <g transform="matrix(1,0,0,1,-49.98,-399.84)">
            <rect x="130.05" y="474.81" width="600.27" height="0.51"/>
        </g>
        <g transform="matrix(1,0,0,1,-49.98,-380.46)">
            <rect x="130.05" y="465.12" width="600.27" height="0.51"/>
        </g>
        <g transform="matrix(1,0,0,1,-49.98,-362.1)">
            <rect x="50.49" y="455.94" width="679.83" height="0.51"/>
        </g>
        <g transform="matrix(1,0,0,1,-49.98,-346.29)">
            <rect x="184.62" y="447.78" width="163.71" height="1.02"/>
        </g>
        <g transform="matrix(1,0,0,1,-49.98,-329.97)">
            <rect x="184.62" y="439.62" width="163.71" height="1.02"/>
        </g>
        <g transform="matrix(1,0,0,1,-49.98,-314.16)">
            <rect x="184.62" y="431.97" width="162.69" height="0.51"/>
        </g>
        <g transform="matrix(1,0,0,1,-49.98,-298.86)">
            <rect x="184.62" y="424.32" width="162.69" height="0.51"/>
        </g>
        <g transform="matrix(1,0,0,1,-49.98,-283.05)">
            <rect x="184.62" y="416.16" width="163.71" height="1.02"/>
        </g>
        <g transform="matrix(1,0,0,1,-49.98,-266.73)">
            <rect x="184.62" y="408" width="109.14" height="1.02"/>
        </g>
        <g transform="matrix(1,0,0,1,-49.98,-250.41)">
            <rect x="184.62" y="399.84" width="109.14" height="1.02"/>
        </g>
    </g>
</svg>
