<?xml version="1.0" encoding="UTF-8" standalone="no"?>
<!DOCTYPE svg PUBLIC "-//W3C//DTD SVG 1.1//EN" "http://www.w3.org/Graphics/SVG/1.1/DTD/svg11.dtd">
<svg width="100%" height="100%" viewBox="0 0 510 168" version="1.1" xmlns="http://www.w3.org/2000/svg" xmlns:xlink="http://www.w3.org/1999/xlink" xml:space="preserve" xmlns:serif="http://www.serif.com/" style="fill-rule:evenodd;clip-rule:evenodd;stroke-linejoin:round;stroke-miterlimit:2;">
    <rect x="-9.575" y="-12.454" width="529.515" height="203.386" style="fill:white;"/>
    <g>
        <g transform="matrix(1,0,0,1,-49.58,-656.58)">
            <rect x="85.84" y="684.7" width="473.6" height="14.06" style="fill:rgb(244,176,132);"/>
        </g>
        <g transform="matrix(1,0,0,1,-49.58,-629.94)">
            <rect x="85.84" y="671.38" width="473.6" height="14.06" style="fill:rgb(248,203,173);"/>
        </g>
        <g transform="matrix(1,0,0,1,-49.58,-603.3)">
            <rect x="85.84" y="658.06" width="473.6" height="14.06" style="fill:rgb(252,228,214);"/>
        </g>
        <g transform="matrix(1,0,0,1,-49.58,-576.66)">
            <rect x="85.84" y="644.74" width="473.6" height="14.06" style="fill:rgb(142,169,219);"/>
        </g>
        <g transform="matrix(1,0,0,1,-49.58,-550.02)">
            <rect x="85.84" y="631.42" width="473.6" height="14.06" style="fill:rgb(180,198,231);"/>
        </g>
        <g transform="matrix(1,0,0,1,-49.58,-522.64)">
            <rect x="85.84" y="617.36" width="473.6" height="14.8" style="fill:rgb(221,235,247);"/>
        </g>
        <g transform="matrix(1,0,0,1,-49.58,-450.12)">
            <rect x="116.92" y="582.58" width="79.92" height="11.84" style="fill:rgb(244,176,132);"/>
        </g>
        <g transform="matrix(1,0,0,1,-49.58,-450.12)">
            <rect x="196.1" y="582.58" width="39.22" height="11.84" style="fill:rgb(142,169,219);"/>
        </g>
        <g transform="matrix(1,0,0,1,-49.58,-427.92)">
            <rect x="116.92" y="571.48" width="79.92" height="11.84" style="fill:rgb(248,203,173);"/>
        </g>
        <g transform="matrix(1,0,0,1,-49.58,-427.92)">
            <rect x="196.1" y="571.48" width="39.22" height="11.84" style="fill:rgb(180,198,231);"/>
        </g>
        <g transform="matrix(1,0,0,1,-49.58,-404.98)">
            <rect x="116.92" y="559.64" width="79.92" height="12.58" style="fill:rgb(252,228,214);"/>
        </g>
        <g transform="matrix(1,0,0,1,-49.58,-404.98)">
            <rect x="196.1" y="559.64" width="39.22" height="12.58" style="fill:rgb(221,235,247);"/>
        </g>
        <g transform="matrix(1,0,0,1,-49.58,-65.12)">
            <text x="89.54px" y="76.22px" style="font-family:'Arial-BoldMT', 'Arial', sans-serif;font-weight:700;font-size:8.88px;">W</text>
            <text x="97.68px" y="76.22px" style="font-family:'Arial-BoldMT', 'Arial', sans-serif;font-weight:700;font-size:8.88px;">a</text>
            <text x="102.864px" y="76.22px" style="font-family:'Arial-BoldMT', 'Arial', sans-serif;font-weight:700;font-size:8.88px;">t</text>
            <text x="105.827px" y="76.22px" style="font-family:'Arial-BoldMT', 'Arial', sans-serif;font-weight:700;font-size:8.88px;">e</text>
            <text x="111.01px" y="76.22px" style="font-family:'Arial-BoldMT', 'Arial', sans-serif;font-weight:700;font-size:8.88px;">r</text>
            <text x="122.759px" y="76.22px" style="font-family:'Arial-BoldMT', 'Arial', sans-serif;font-weight:700;font-size:8.88px;">A<tspan x="129.416px 133.116px " y="76.22px 76.22px ">ra</tspan></text>
            <text x="138.299px" y="76.22px" style="font-family:'Arial-BoldMT', 'Arial', sans-serif;font-weight:700;font-size:8.88px;">b<tspan x="143.476px 145.696px 150.873px 156.05px " y="76.22px 76.22px 76.22px 76.22px ">inog</tspan></text>
            <text x="161.228px" y="76.22px" style="font-family:'Arial-BoldMT', 'Arial', sans-serif;font-weight:700;font-size:8.88px;">a</text>
            <text x="166.405px" y="76.22px" style="font-family:'Arial-BoldMT', 'Arial', sans-serif;font-weight:700;font-size:8.88px;">l</text>
            <text x="168.625px" y="76.22px" style="font-family:'Arial-BoldMT', 'Arial', sans-serif;font-weight:700;font-size:8.88px;">a<tspan x="173.802px " y="76.22px ">c</tspan></text>
            <text x="178.979px" y="76.22px" style="font-family:'Arial-BoldMT', 'Arial', sans-serif;font-weight:700;font-size:8.88px;">t</text>
            <text x="181.936px" y="76.22px" style="font-family:'Arial-BoldMT', 'Arial', sans-serif;font-weight:700;font-size:8.88px;">a<tspan x="187.119px " y="76.22px ">n</tspan></text>
            <text x="202.76px" y="76.22px" style="font-family:'Arial-BoldMT', 'Arial', sans-serif;font-weight:700;font-size:8.88px;">P</text>
            <text x="208.68px" y="76.22px" style="font-family:'Arial-BoldMT', 'Arial', sans-serif;font-weight:700;font-size:8.88px;">e<tspan x="213.864px " y="76.22px ">c</tspan></text>
            <text x="219.047px" y="76.22px" style="font-family:'Arial-BoldMT', 'Arial', sans-serif;font-weight:700;font-size:8.88px;">t</text>
            <text x="222.01px" y="76.22px" style="font-family:'Arial-BoldMT', 'Arial', sans-serif;font-weight:700;font-size:8.88px;">i</text>
            <text x="224.227px" y="76.22px" style="font-family:'Arial-BoldMT', 'Arial', sans-serif;font-weight:700;font-size:8.88px;">n</text>
            <text x="240.5px" y="76.22px" style="font-family:'Arial-BoldMT', 'Arial', sans-serif;font-weight:700;font-size:8.88px;">P</text>
            <text x="246.421px" y="76.22px" style="font-family:'Arial-BoldMT', 'Arial', sans-serif;font-weight:700;font-size:8.88px;">e<tspan x="251.604px " y="76.22px ">c</tspan></text>
            <text x="256.787px" y="76.22px" style="font-family:'Arial-BoldMT', 'Arial', sans-serif;font-weight:700;font-size:8.88px;">t</text>
            <text x="259.751px" y="76.22px" style="font-family:'Arial-BoldMT', 'Arial', sans-serif;font-weight:700;font-size:8.88px;">i</text>
            <text x="261.968px" y="76.22px" style="font-family:'Arial-BoldMT', 'Arial', sans-serif;font-weight:700;font-size:8.88px;">c</text>
            <text x="269.368px" y="76.22px" style="font-family:'Arial-BoldMT', 'Arial', sans-serif;font-weight:700;font-size:8.88px;">G</text>
            <text x="276.025px" y="76.22px" style="font-family:'Arial-BoldMT', 'Arial', sans-serif;font-weight:700;font-size:8.88px;">a</text>
            <text x="281.209px" y="76.22px" style="font-family:'Arial-BoldMT', 'Arial', sans-serif;font-weight:700;font-size:8.88px;">l</text>
            <text x="283.426px" y="76.22px" style="font-family:'Arial-BoldMT', 'Arial', sans-serif;font-weight:700;font-size:8.88px;">a<tspan x="288.609px " y="76.22px ">c</tspan></text>
            <text x="293.792px" y="76.22px" style="font-family:'Arial-BoldMT', 'Arial', sans-serif;font-weight:700;font-size:8.88px;">t</text>
            <text x="296.756px" y="76.22px" style="font-family:'Arial-BoldMT', 'Arial', sans-serif;font-weight:700;font-size:8.88px;">a</text>
            <text x="301.939px" y="76.22px" style="font-family:'Arial-BoldMT', 'Arial', sans-serif;font-weight:700;font-size:8.88px;">n</text>
            <text x="317.46px" y="76.22px" style="font-family:'Arial-BoldMT', 'Arial', sans-serif;font-weight:700;font-size:8.88px;">C<tspan x="324.116px " y="76.22px ">e</tspan></text>
            <text x="329.297px" y="76.22px" style="font-family:'Arial-BoldMT', 'Arial', sans-serif;font-weight:700;font-size:8.88px;">l<tspan x="331.517px 333.737px 338.914px 344.091px 346.311px " y="76.22px 76.22px 76.22px 76.22px 76.22px ">lobio</tspan></text>
            <text x="351.488px" y="76.22px" style="font-family:'Arial-BoldMT', 'Arial', sans-serif;font-weight:700;font-size:8.88px;">s<tspan x="356.67px " y="76.22px ">e</tspan></text>
            <text x="370.659px" y="76.22px" style="font-family:'Arial-BoldMT', 'Arial', sans-serif;font-weight:700;font-size:8.88px;">A<tspan x="377.316px 381.015px " y="76.22px 76.22px ">ra</tspan></text>
            <text x="386.198px" y="76.22px" style="font-family:'Arial-BoldMT', 'Arial', sans-serif;font-weight:700;font-size:8.88px;">b<tspan x="391.375px 393.595px " y="76.22px 76.22px ">in</tspan></text>
            <text x="398.772px" y="76.22px" style="font-family:'Arial-BoldMT', 'Arial', sans-serif;font-weight:700;font-size:8.88px;">a<tspan x="403.955px " y="76.22px ">n</tspan></text>
            <text x="416.539px" y="76.22px" style="font-family:'Arial-BoldMT', 'Arial', sans-serif;font-weight:700;font-size:8.88px;">I<tspan x="418.759px 423.936px 429.113px 431.333px 433.553px " y="76.22px 76.22px 76.22px 76.22px 76.22px ">nulin</tspan></text>
            <text x="446.139px" y="76.22px" style="font-family:'Arial-BoldMT', 'Arial', sans-serif;font-weight:700;font-size:8.88px;">D<tspan x="452.794px 457.973px " y="76.22px 76.22px ">ex</tspan></text>
            <text x="463.153px" y="76.22px" style="font-family:'Arial-BoldMT', 'Arial', sans-serif;font-weight:700;font-size:8.88px;">t</text>
            <text x="466.11px" y="76.22px" style="font-family:'Arial-BoldMT', 'Arial', sans-serif;font-weight:700;font-size:8.88px;">r<tspan x="469.811px 474.994px 480.663px 488.472px 495.13px 498.83px " y="76.22px 76.22px 76.22px 76.22px 76.22px 76.22px ">an Ara</tspan></text>
            <text x="504.013px" y="76.22px" style="font-family:'Arial-BoldMT', 'Arial', sans-serif;font-weight:700;font-size:8.88px;">b<tspan x="509.191px 511.41px 516.588px " y="76.22px 76.22px 76.22px ">ino</tspan></text>
            <text x="521.765px" y="76.22px" style="font-family:'Arial-BoldMT', 'Arial', sans-serif;font-weight:700;font-size:8.88px;">s<tspan x="526.946px " y="76.22px ">e</tspan></text>
            <text x="538.559px" y="76.22px" style="font-family:'Arial-BoldMT', 'Arial', sans-serif;font-weight:700;font-size:8.88px;">M</text>
            <text x="545.958px" y="76.22px" style="font-family:'Arial-BoldMT', 'Arial', sans-serif;font-weight:700;font-size:8.88px;">C<tspan x="552.621px " y="76.22px ">F</tspan></text>
            <text x="98.42px" y="90.28px" style="font-family:'Arial-BoldMT', 'Arial', sans-serif;font-weight:700;font-size:11.84px;">2</text>
        </g>
        <g transform="matrix(1,0,0,1,-49.58,-65.12)">
            <text x="153.92px" y="90.28px" style="font-family:'Arial-BoldMT', 'Arial', sans-serif;font-weight:700;font-size:11.84px;">3</text>
        </g>
        <g transform="matrix(1,0,0,1,-49.58,-65.12)">
            <text x="212.38px" y="90.28px" style="font-family:'Arial-BoldMT', 'Arial', sans-serif;font-weight:700;font-size:11.84px;">4</text>
        </g>
        <g transform="matrix(1,0,0,1,-49.58,-65.12)">
            <text x="270.84px" y="90.28px" style="font-family:'Arial-BoldMT', 'Arial', sans-serif;font-weight:700;font-size:11.84px;">5</text>
        </g>
        <g transform="matrix(1,0,0,1,-49.58,-65.12)">
            <text x="335.96px" y="90.28px" style="font-family:'Arial-BoldMT', 'Arial', sans-serif;font-weight:700;font-size:11.84px;">6</text>
        </g>
        <g transform="matrix(1,0,0,1,-49.58,-65.12)">
            <text x="385.54px" y="90.28px" style="font-family:'Arial-BoldMT', 'Arial', sans-serif;font-weight:700;font-size:11.84px;">7</text>
        </g>
        <g transform="matrix(1,0,0,1,-49.58,-65.12)">
            <text x="424.02px" y="90.28px" style="font-family:'Arial-BoldMT', 'Arial', sans-serif;font-weight:700;font-size:11.84px;">8</text>
        </g>
        <g transform="matrix(1,0,0,1,-49.58,-65.12)">
            <text x="459.54px" y="90.28px" style="font-family:'Arial-BoldMT', 'Arial', sans-serif;font-weight:700;font-size:11.84px;">9</text>
        </g>
        <g transform="matrix(1,0,0,1,-49.58,-65.12)">
            <text x="501.72px" y="90.28px" style="font-family:'Arial-BoldMT', 'Arial', sans-serif;font-weight:700;font-size:11.84px;">10</text>
        </g>
        <g transform="matrix(1,0,0,1,-49.58,-65.12)">
            <text x="540.2px" y="90.28px" style="font-family:'Arial-BoldMT', 'Arial', sans-serif;font-weight:700;font-size:11.84px;">11</text>
        </g>
        <g transform="matrix(1,0,0,1,-49.58,-65.12)">
            <text x="63.64px" y="104.34px" style="font-family:'Arial-BoldMT', 'Arial', sans-serif;font-weight:700;font-size:11.84px;">B</text>
            <text x="63.64px" y="117.66px" style="font-family:'Arial-BoldMT', 'Arial', sans-serif;font-weight:700;font-size:11.84px;">C</text>
            <text x="63.64px" y="130.98px" style="font-family:'Arial-BoldMT', 'Arial', sans-serif;font-weight:700;font-size:11.84px;">D</text>
            <text x="64.38px" y="144.3px" style="font-family:'Arial-BoldMT', 'Arial', sans-serif;font-weight:700;font-size:11.84px;">E</text>
            <text x="64.38px" y="157.62px" style="font-family:'Arial-BoldMT', 'Arial', sans-serif;font-weight:700;font-size:11.84px;">F</text>
            <text x="63.64px" y="170.94px" style="font-family:'Arial-BoldMT', 'Arial', sans-serif;font-weight:700;font-size:11.84px;">G</text>
        </g>
        <g transform="matrix(1,0,0,1,-49.58,-65.12)">
            <text x="150.22px" y="194.62px" style="font-family:'ArialMT', 'Arial', sans-serif;font-size:8.88px;">J</text>
            <text x="154.66px" y="194.62px" style="font-family:'ArialMT', 'Arial', sans-serif;font-size:8.88px;">a<tspan x="159.84px " y="194.62px ">x</tspan></text>
        </g>
        <g transform="matrix(1,0,0,1,-49.58,-65.12)">
            <text x="202.02px" y="194.62px" style="font-family:'ArialMT', 'Arial', sans-serif;font-size:8.88px;">E</text>
            <text x="207.94px" y="194.62px" style="font-family:'ArialMT', 'Arial', sans-serif;font-size:8.88px;">n</text>
            <text x="213.12px" y="194.62px" style="font-family:'ArialMT', 'Arial', sans-serif;font-size:8.88px;">v</text>
            <text x="217.56px" y="194.62px" style="font-family:'ArialMT', 'Arial', sans-serif;font-size:8.88px;">i<tspan x="219.777px " y="194.62px ">g</tspan></text>
            <text x="224.96px" y="194.62px" style="font-family:'ArialMT', 'Arial', sans-serif;font-size:8.88px;">o <tspan x="236.8px " y="194.62px ">S</tspan></text>
            <text x="242.721px" y="194.62px" style="font-family:'ArialMT', 'Arial', sans-serif;font-size:8.88px;">t</text>
            <text x="244.938px" y="194.62px" style="font-family:'ArialMT', 'Arial', sans-serif;font-size:8.88px;">o<tspan x="250.121px 255.305px " y="194.62px 194.62px ">ol</tspan></text>
            <text x="260.234px" y="194.62px" style="font-family:'ArialMT', 'Arial', sans-serif;font-size:8.88px;">I</text>
            <text x="262.451px" y="194.62px" style="font-family:'ArialMT', 'Arial', sans-serif;font-size:8.88px;">n<tspan x="267.634px 272.818px 278.001px " y="194.62px 194.62px 194.62px ">put</tspan></text>
        </g>
        <g transform="matrix(1,0,0,1,-49.58,-65.12)">
            <text x="367.78px" y="194.62px" style="font-family:'ArialMT', 'Arial', sans-serif;font-size:8.88px;">M</text>
            <text x="375.18px" y="194.62px" style="font-family:'ArialMT', 'Arial', sans-serif;font-size:8.88px;">C<tspan x="381.842px " y="194.62px ">F</tspan></text>
        </g>
        <g transform="matrix(1,0,0,1,-49.58,-65.12)">
            <text x="142.08px" y="206.46px" style="font-family:'Arial-BoldMT', 'Arial', sans-serif;font-weight:700;font-size:8.88px;">j</text>
            <text x="144.3px" y="206.46px" style="font-family:'Arial-BoldMT', 'Arial', sans-serif;font-weight:700;font-size:8.88px;">x<tspan x="149.477px " y="206.46px ">e</tspan></text>
            <text x="154.654px" y="206.46px" style="font-family:'Arial-BoldMT', 'Arial', sans-serif;font-weight:700;font-size:8.88px;">.</text>
            <text x="156.874px" y="206.46px" style="font-family:'Arial-BoldMT', 'Arial', sans-serif;font-weight:700;font-size:8.88px;">0<tspan x="162.051px 167.228px " y="206.46px 206.46px ">67</tspan></text>
        </g>
        <g transform="matrix(1,0,0,1,-49.58,-65.12)">
            <text x="200.54px" y="206.46px" style="font-family:'Arial-BoldMT', 'Arial', sans-serif;font-weight:700;font-size:8.88px;">j</text>
            <text x="202.76px" y="206.46px" style="font-family:'Arial-BoldMT', 'Arial', sans-serif;font-weight:700;font-size:8.88px;">x<tspan x="207.937px " y="206.46px ">e</tspan></text>
            <text x="213.114px" y="206.46px" style="font-family:'Arial-BoldMT', 'Arial', sans-serif;font-weight:700;font-size:8.88px;">.</text>
            <text x="215.334px" y="206.46px" style="font-family:'Arial-BoldMT', 'Arial', sans-serif;font-weight:700;font-size:8.88px;">0<tspan x="220.511px " y="206.46px ">7</tspan></text>
            <text x="225.688px" y="206.46px" style="font-family:'Arial-BoldMT', 'Arial', sans-serif;font-weight:700;font-size:8.88px;">0</text>
            <text x="236.8px" y="206.46px" style="font-family:'ArialMT', 'Arial', sans-serif;font-size:8.88px;">5<tspan x="241.98px 247.159px 252.339px 255.047px " y="206.46px 206.46px 206.46px 206.46px ">uL o</tspan></text>
            <text x="260.227px" y="206.46px" style="font-family:'ArialMT', 'Arial', sans-serif;font-size:8.88px;">f</text>
            <text x="264.672px" y="206.46px" style="font-family:'ArialMT', 'Arial', sans-serif;font-size:8.88px;">1<tspan x="269.864px 275.055px 279.474px " y="206.46px 206.46px 206.46px ">0^0</tspan></text>
            <text x="236.8px" y="217.56px" style="font-family:'ArialMT', 'Arial', sans-serif;font-size:8.88px;">5<tspan x="241.98px 247.159px 252.339px 255.047px " y="217.56px 217.56px 217.56px 217.56px ">uL o</tspan></text>
            <text x="260.227px" y="217.56px" style="font-family:'ArialMT', 'Arial', sans-serif;font-size:8.88px;">f</text>
            <text x="264.672px" y="217.56px" style="font-family:'ArialMT', 'Arial', sans-serif;font-size:8.88px;">1<tspan x="269.864px 275.055px " y="217.56px 217.56px ">0^</tspan></text>
            <text x="279.474px" y="217.56px" style="font-family:'ArialMT', 'Arial', sans-serif;font-size:8.88px;">-1</text>
            <text x="236.8px" y="228.66px" style="font-family:'ArialMT', 'Arial', sans-serif;font-size:8.88px;">5<tspan x="241.98px 247.159px 252.339px 255.047px " y="228.66px 228.66px 228.66px 228.66px ">uL o</tspan></text>
            <text x="260.227px" y="228.66px" style="font-family:'ArialMT', 'Arial', sans-serif;font-size:8.88px;">f</text>
            <text x="264.672px" y="228.66px" style="font-family:'ArialMT', 'Arial', sans-serif;font-size:8.88px;">1<tspan x="269.864px 275.055px " y="228.66px 228.66px ">0^</tspan></text>
            <text x="279.474px" y="228.66px" style="font-family:'ArialMT', 'Arial', sans-serif;font-size:8.88px;">-2</text>
        </g>
        <g transform="matrix(1,0,0,1,-49.58,-65.12)">
            <text x="431.42px" y="194.62px" style="font-family:'ArialMT', 'Arial', sans-serif;font-size:8.88px;">M</text>
            <text x="438.82px" y="194.62px" style="font-family:'ArialMT', 'Arial', sans-serif;font-size:8.88px;">o<tspan x="443.999px " y="194.62px ">u</tspan></text>
            <text x="449.179px" y="194.62px" style="font-family:'ArialMT', 'Arial', sans-serif;font-size:8.88px;">s</text>
            <text x="453.619px" y="194.62px" style="font-family:'ArialMT', 'Arial', sans-serif;font-size:8.88px;">e<tspan x="458.801px 461.512px 468.168px 473.35px 478.533px " y="194.62px 194.62px 194.62px 194.62px 194.62px "> Chow</tspan></text>
            <text x="486.918px" y="194.62px" style="font-family:'ArialMT', 'Arial', sans-serif;font-size:8.88px;">F</text>
            <text x="492.098px" y="194.62px" style="font-family:'ArialMT', 'Arial', sans-serif;font-size:8.88px;">i<tspan x="494.318px " y="194.62px ">l</tspan></text>
            <text x="496.538px" y="194.62px" style="font-family:'ArialMT', 'Arial', sans-serif;font-size:8.88px;">t</text>
            <text x="498.758px" y="194.62px" style="font-family:'ArialMT', 'Arial', sans-serif;font-size:8.88px;">r</text>
            <text x="501.718px" y="194.62px" style="font-family:'ArialMT', 'Arial', sans-serif;font-size:8.88px;">a</text>
            <text x="506.897px" y="194.62px" style="font-family:'ArialMT', 'Arial', sans-serif;font-size:8.88px;">t<tspan x="509.117px " y="194.62px ">e</tspan></text>
        </g>
        <g transform="matrix(1,0,0,1,-49.58,-669.9)">
            <rect x="50.32" y="698.02" width="34.78" height="0.74"/>
        </g>
        <g transform="matrix(1,0,0,1,-49.58,-699.5)">
            <rect x="85.84" y="699.5" width="0.74" height="27.38"/>
        </g>
        <g transform="matrix(1,0,0,1,-49.58,-698.76)">
            <rect x="116.92" y="699.5" width="0.74" height="26.64"/>
        </g>
        <g transform="matrix(1,0,0,1,-49.58,-698.76)">
            <rect x="196.1" y="699.5" width="0.74" height="26.64"/>
        </g>
        <g transform="matrix(1,0,0,1,-49.58,-698.76)">
            <rect x="234.58" y="699.5" width="0.74" height="26.64"/>
        </g>
        <g transform="matrix(1,0,0,1,-49.58,-698.76)">
            <rect x="312.28" y="699.5" width="0.74" height="26.64"/>
        </g>
        <g transform="matrix(1,0,0,1,-49.58,-698.76)">
            <rect x="365.56" y="699.5" width="0.74" height="26.64"/>
        </g>
        <g transform="matrix(1,0,0,1,-49.58,-698.76)">
            <rect x="411.44" y="699.5" width="0.74" height="26.64"/>
        </g>
        <g transform="matrix(1,0,0,1,-49.58,-698.76)">
            <rect x="441.78" y="699.5" width="0.74" height="26.64"/>
        </g>
        <g transform="matrix(1,0,0,1,-49.58,-698.76)">
            <rect x="482.48" y="699.5" width="0.74" height="26.64"/>
        </g>
        <g transform="matrix(1,0,0,1,-49.58,-698.76)">
            <rect x="533.54" y="699.5" width="0.74" height="26.64"/>
        </g>
        <g transform="matrix(1,0,0,1,-49.58,-698.76)">
            <rect x="558.7" y="699.5" width="0.74" height="26.64"/>
        </g>
        <g transform="matrix(1,0,0,1,-49.58,-643.26)">
            <rect x="50.32" y="684.7" width="34.78" height="0.74"/>
        </g>
        <g transform="matrix(1,0,0,1,-49.58,-616.62)">
            <rect x="50.32" y="671.38" width="34.78" height="0.74"/>
        </g>
        <g transform="matrix(1,0,0,1,-49.58,-589.98)">
            <rect x="50.32" y="658.06" width="34.78" height="0.74"/>
        </g>
        <g transform="matrix(1,0,0,1,-49.58,-563.34)">
            <rect x="50.32" y="644.74" width="34.78" height="0.74"/>
        </g>
        <g transform="matrix(1,0,0,1,-49.58,-536.7)">
            <rect x="50.32" y="631.42" width="34.78" height="0.74"/>
        </g>
        <g transform="matrix(1,0,0,1,-49.58,-508.58)">
            <rect x="50.32" y="617.36" width="34.78" height="0.74"/>
        </g>
        <g transform="matrix(1,0,0,1,-49.58,-589.98)">
            <rect x="116.92" y="618.84" width="0.74" height="79.18"/>
        </g>
        <g transform="matrix(1,0,0,1,-49.58,-589.98)">
            <rect x="196.1" y="618.84" width="0.74" height="79.18"/>
        </g>
        <g transform="matrix(1,0,0,1,-49.58,-589.98)">
            <rect x="234.58" y="618.84" width="0.74" height="79.18"/>
        </g>
        <g transform="matrix(1,0,0,1,-49.58,-589.98)">
            <rect x="312.28" y="618.84" width="0.74" height="79.18"/>
        </g>
        <g transform="matrix(1,0,0,1,-49.58,-472.32)">
            <rect x="195.36" y="593.68" width="1.48" height="11.84"/>
        </g>
        <g transform="matrix(1,0,0,1,-49.58,-472.32)">
            <rect x="233.84" y="593.68" width="1.48" height="11.84"/>
        </g>
        <g transform="matrix(1,0,0,1,-49.58,-589.98)">
            <rect x="85.1" y="617.36" width="1.48" height="82.14"/>
        </g>
        <g transform="matrix(1,0,0,1,-49.58,-439.76)">
            <rect x="116.18" y="559.64" width="1.48" height="47.36"/>
        </g>
        <g transform="matrix(1,0,0,1,-49.58,-427.92)">
            <rect x="196.1" y="561.12" width="0.74" height="32.56"/>
        </g>
        <g transform="matrix(1,0,0,1,-49.58,-427.92)">
            <rect x="234.58" y="561.12" width="0.74" height="32.56"/>
        </g>
        <g transform="matrix(1,0,0,1,-49.58,-438.28)">
            <rect x="311.54" y="559.64" width="1.48" height="45.88"/>
        </g>
        <g transform="matrix(1,0,0,1,-49.58,-589.98)">
            <rect x="365.56" y="618.84" width="0.74" height="79.18"/>
        </g>
        <g transform="matrix(1,0,0,1,-49.58,-589.98)">
            <rect x="411.44" y="618.84" width="0.74" height="79.18"/>
        </g>
        <g transform="matrix(1,0,0,1,-49.58,-589.98)">
            <rect x="441.78" y="618.84" width="0.74" height="79.18"/>
        </g>
        <g transform="matrix(1,0,0,1,-49.58,-589.98)">
            <rect x="482.48" y="618.84" width="0.74" height="79.18"/>
        </g>
        <g transform="matrix(1,0,0,1,-49.58,-589.98)">
            <rect x="533.54" y="618.84" width="0.74" height="79.18"/>
        </g>
        <g transform="matrix(1,0,0,1,-49.58,-588.5)">
            <rect x="557.96" y="617.36" width="1.48" height="80.66"/>
        </g>
        <g transform="matrix(1,0,0,1,-49.58,-589.24)">
            <rect x="49.58" y="617.36" width="0.74" height="81.4"/>
        </g>
        <g transform="matrix(1,0,0,1,-49.58,-726.14)">
            <rect x="86.58" y="726.14" width="472.86" height="0.74"/>
        </g>
        <g transform="matrix(1,0,0,1,-49.58,-698.02)">
            <rect x="86.58" y="712.08" width="472.86" height="0.74"/>
        </g>
        <g transform="matrix(1,0,0,1,-49.58,-670.64)">
            <rect x="86.58" y="698.02" width="472.86" height="1.48"/>
        </g>
        <g transform="matrix(1,0,0,1,-49.58,-643.26)">
            <rect x="86.58" y="684.7" width="471.38" height="0.74"/>
        </g>
        <g transform="matrix(1,0,0,1,-49.58,-616.62)">
            <rect x="86.58" y="671.38" width="471.38" height="0.74"/>
        </g>
        <g transform="matrix(1,0,0,1,-49.58,-589.98)">
            <rect x="86.58" y="658.06" width="471.38" height="0.74"/>
        </g>
        <g transform="matrix(1,0,0,1,-49.58,-563.34)">
            <rect x="86.58" y="644.74" width="471.38" height="0.74"/>
        </g>
        <g transform="matrix(1,0,0,1,-49.58,-536.7)">
            <rect x="86.58" y="631.42" width="471.38" height="0.74"/>
        </g>
        <g transform="matrix(1,0,0,1,-49.58,-509.32)">
            <rect x="86.58" y="617.36" width="472.86" height="1.48"/>
        </g>
        <g transform="matrix(1,0,0,1,-49.58,-485.64)">
            <rect x="117.66" y="605.52" width="195.36" height="1.48"/>
        </g>
        <g transform="matrix(1,0,0,1,-49.58,-461.96)">
            <rect x="117.66" y="593.68" width="195.36" height="1.48"/>
        </g>
        <g transform="matrix(1,0,0,1,-49.58,-439.02)">
            <rect x="117.66" y="582.58" width="193.88" height="0.74"/>
        </g>
        <g transform="matrix(1,0,0,1,-49.58,-416.82)">
            <rect x="117.66" y="571.48" width="193.88" height="0.74"/>
        </g>
        <g transform="matrix(1,0,0,1,-49.58,-393.88)">
            <rect x="117.66" y="559.64" width="195.36" height="1.48"/>
        </g>
    </g>
</svg>
