<?xml version="1.0" encoding="UTF-8" standalone="no"?>
<!DOCTYPE svg PUBLIC "-//W3C//DTD SVG 1.1//EN" "http://www.w3.org/Graphics/SVG/1.1/DTD/svg11.dtd">
<svg width="100%" height="100%" viewBox="0 0 507 101" version="1.1" xmlns="http://www.w3.org/2000/svg" xmlns:xlink="http://www.w3.org/1999/xlink" xml:space="preserve" xmlns:serif="http://www.serif.com/" style="fill-rule:evenodd;clip-rule:evenodd;stroke-linejoin:round;stroke-miterlimit:2;">
    <rect x="-10.012" y="-13.16" width="525.07" height="136.565" style="fill:white;"/>
    <g>
        <g transform="matrix(1,0,0,1,-49.78,-696.62)">
            <rect x="68.4" y="710.68" width="488.3" height="7.6" style="fill:rgb(191,143,0);"/>
        </g>
        <g transform="matrix(1,0,0,1,-49.78,-668.5)">
            <rect x="68.4" y="689.78" width="447.64" height="21.28" style="fill:rgb(244,176,132);"/>
        </g>
        <g transform="matrix(1,0,0,1,-49.78,-668.5)">
            <rect x="515.66" y="689.78" width="41.04" height="21.28" style="fill:rgb(191,143,0);"/>
        </g>
        <g transform="matrix(1,0,0,1,-49.78,-626.7)">
            <rect x="68.4" y="668.88" width="447.64" height="21.28" style="fill:rgb(142,169,219);"/>
        </g>
        <g transform="matrix(1,0,0,1,-49.78,-626.7)">
            <rect x="515.66" y="668.88" width="41.04" height="21.28" style="fill:rgb(191,143,0);"/>
        </g>
        <g transform="matrix(1,0,0,1,-49.78,-598.96)">
            <rect x="68.4" y="662.04" width="488.3" height="7.22" style="fill:rgb(191,143,0);"/>
        </g>
        <g transform="matrix(1,0,0,1,-49.78,-561.72)">
            <rect x="149.72" y="643.8" width="41.04" height="6.46" style="fill:rgb(244,176,132);"/>
        </g>
        <g transform="matrix(1,0,0,1,-49.78,-561.72)">
            <rect x="190.38" y="643.8" width="41.04" height="6.46" style="fill:rgb(142,169,219);"/>
        </g>
        <g transform="matrix(1,0,0,1,-49.78,-537.4)">
            <rect x="149.72" y="631.64" width="41.04" height="6.46" style="fill:rgb(191,143,0);"/>
        </g>
        <g transform="matrix(1,0,0,1,-49.78,-59.66)">
            <text x="69.92px" y="65.36px" style="font-family:'Arial-BoldMT', 'Arial', sans-serif;font-weight:700;font-size:6.08px;">s</text>
            <text x="73.34px" y="65.36px" style="font-family:'Arial-BoldMT', 'Arial', sans-serif;font-weight:700;font-size:6.08px;">t</text>
            <text x="75.24px" y="65.36px" style="font-family:'Arial-BoldMT', 'Arial', sans-serif;font-weight:700;font-size:6.08px;">oo<tspan x="82.846px " y="65.36px ">l</tspan></text>
        </g>
        <g transform="matrix(1,0,0,1,-49.78,-59.66)">
            <text x="123.12px" y="65.36px" style="font-family:'Arial-BoldMT', 'Arial', sans-serif;font-weight:700;font-size:4.56px;">W</text>
            <text x="127.3px" y="65.36px" style="font-family:'Arial-BoldMT', 'Arial', sans-serif;font-weight:700;font-size:4.56px;">a</text>
            <text x="129.962px" y="65.36px" style="font-family:'Arial-BoldMT', 'Arial', sans-serif;font-weight:700;font-size:4.56px;">t</text>
            <text x="131.483px" y="65.36px" style="font-family:'Arial-BoldMT', 'Arial', sans-serif;font-weight:700;font-size:4.56px;">e<tspan x="134.145px " y="65.36px ">r</tspan></text>
        </g>
        <g transform="matrix(1,0,0,1,-49.78,-59.66)">
            <text x="152.38px" y="65.36px" style="font-family:'Arial-BoldMT', 'Arial', sans-serif;font-weight:700;font-size:4.56px;">A<tspan x="155.799px 157.699px " y="65.36px 65.36px ">ra</tspan></text>
            <text x="160.36px" y="65.36px" style="font-family:'Arial-BoldMT', 'Arial', sans-serif;font-weight:700;font-size:4.56px;">b<tspan x="163.018px 164.158px 166.817px 169.475px " y="65.36px 65.36px 65.36px 65.36px ">inog</tspan></text>
            <text x="172.134px" y="65.36px" style="font-family:'Arial-BoldMT', 'Arial', sans-serif;font-weight:700;font-size:4.56px;">a</text>
            <text x="174.792px" y="65.36px" style="font-family:'Arial-BoldMT', 'Arial', sans-serif;font-weight:700;font-size:4.56px;">l</text>
            <text x="175.932px" y="65.36px" style="font-family:'Arial-BoldMT', 'Arial', sans-serif;font-weight:700;font-size:4.56px;">a<tspan x="178.591px " y="65.36px ">c</tspan></text>
            <text x="181.249px" y="65.36px" style="font-family:'Arial-BoldMT', 'Arial', sans-serif;font-weight:700;font-size:4.56px;">t</text>
            <text x="182.768px" y="65.36px" style="font-family:'Arial-BoldMT', 'Arial', sans-serif;font-weight:700;font-size:4.56px;">a<tspan x="185.426px " y="65.36px ">n</tspan></text>
        </g>
        <g transform="matrix(1,0,0,1,-49.78,-59.66)">
            <text x="204.06px" y="65.36px" style="font-family:'Arial-BoldMT', 'Arial', sans-serif;font-weight:700;font-size:4.56px;">P</text>
            <text x="207.1px" y="65.36px" style="font-family:'Arial-BoldMT', 'Arial', sans-serif;font-weight:700;font-size:4.56px;">e<tspan x="209.762px " y="65.36px ">c</tspan></text>
            <text x="212.423px" y="65.36px" style="font-family:'Arial-BoldMT', 'Arial', sans-serif;font-weight:700;font-size:4.56px;">t</text>
            <text x="213.945px" y="65.36px" style="font-family:'Arial-BoldMT', 'Arial', sans-serif;font-weight:700;font-size:4.56px;">i<tspan x="215.084px " y="65.36px ">n</tspan></text>
        </g>
        <g transform="matrix(1,0,0,1,-49.78,-59.66)">
            <text x="234.46px" y="65.36px" style="font-family:'Arial-BoldMT', 'Arial', sans-serif;font-weight:700;font-size:4.56px;">P</text>
            <text x="237.5px" y="65.36px" style="font-family:'Arial-BoldMT', 'Arial', sans-serif;font-weight:700;font-size:4.56px;">e<tspan x="240.162px " y="65.36px ">c</tspan></text>
            <text x="242.823px" y="65.36px" style="font-family:'Arial-BoldMT', 'Arial', sans-serif;font-weight:700;font-size:4.56px;">t</text>
            <text x="244.345px" y="65.36px" style="font-family:'Arial-BoldMT', 'Arial', sans-serif;font-weight:700;font-size:4.56px;">i</text>
            <text x="245.484px" y="65.36px" style="font-family:'Arial-BoldMT', 'Arial', sans-serif;font-weight:700;font-size:4.56px;">c</text>
            <text x="249.538px" y="65.36px" style="font-family:'Arial-BoldMT', 'Arial', sans-serif;font-weight:700;font-size:4.56px;">G</text>
            <text x="252.957px" y="65.36px" style="font-family:'Arial-BoldMT', 'Arial', sans-serif;font-weight:700;font-size:4.56px;">a</text>
            <text x="255.618px" y="65.36px" style="font-family:'Arial-BoldMT', 'Arial', sans-serif;font-weight:700;font-size:4.56px;">l</text>
            <text x="256.757px" y="65.36px" style="font-family:'Arial-BoldMT', 'Arial', sans-serif;font-weight:700;font-size:4.56px;">a<tspan x="259.419px " y="65.36px ">c</tspan></text>
            <text x="262.08px" y="65.36px" style="font-family:'Arial-BoldMT', 'Arial', sans-serif;font-weight:700;font-size:4.56px;">t</text>
            <text x="263.602px" y="65.36px" style="font-family:'Arial-BoldMT', 'Arial', sans-serif;font-weight:700;font-size:4.56px;">a<tspan x="266.264px " y="65.36px ">n</tspan></text>
        </g>
        <g transform="matrix(1,0,0,1,-49.78,-59.66)">
            <text x="279.3px" y="65.36px" style="font-family:'Arial-BoldMT', 'Arial', sans-serif;font-weight:700;font-size:4.56px;">A<tspan x="282.718px 285.378px 288.796px " y="65.36px 65.36px 65.36px ">_Ce</tspan></text>
            <text x="291.457px" y="65.36px" style="font-family:'Arial-BoldMT', 'Arial', sans-serif;font-weight:700;font-size:4.56px;">l<tspan x="292.597px 293.737px 296.395px 297.535px " y="65.36px 65.36px 65.36px 65.36px ">lulo</tspan></text>
            <text x="300.194px" y="65.36px" style="font-family:'Arial-BoldMT', 'Arial', sans-serif;font-weight:700;font-size:4.56px;">s<tspan x="302.852px " y="65.36px ">e</tspan></text>
        </g>
        <g transform="matrix(1,0,0,1,-49.78,-59.66)">
            <text x="323px" y="65.36px" style="font-family:'Arial-BoldMT', 'Arial', sans-serif;font-weight:700;font-size:4.56px;">A<tspan x="326.419px 328.319px " y="65.36px 65.36px ">ra</tspan></text>
            <text x="330.98px" y="65.36px" style="font-family:'Arial-BoldMT', 'Arial', sans-serif;font-weight:700;font-size:4.56px;">b<tspan x="333.638px 334.778px " y="65.36px 65.36px ">in</tspan></text>
            <text x="337.437px" y="65.36px" style="font-family:'Arial-BoldMT', 'Arial', sans-serif;font-weight:700;font-size:4.56px;">a<tspan x="340.095px " y="65.36px ">n</tspan></text>
        </g>
        <g transform="matrix(1,0,0,1,-49.78,-59.66)">
            <text x="363.66px" y="65.36px" style="font-family:'Arial-BoldMT', 'Arial', sans-serif;font-weight:700;font-size:4.56px;">C<tspan x="367.078px " y="65.36px ">e</tspan></text>
            <text x="369.738px" y="65.36px" style="font-family:'Arial-BoldMT', 'Arial', sans-serif;font-weight:700;font-size:4.56px;">l<tspan x="370.878px 372.018px 374.677px 375.817px " y="65.36px 65.36px 65.36px 65.36px ">lulo</tspan></text>
            <text x="378.475px" y="65.36px" style="font-family:'Arial-BoldMT', 'Arial', sans-serif;font-weight:700;font-size:4.56px;">s<tspan x="381.134px " y="65.36px ">e</tspan></text>
        </g>
        <g transform="matrix(1,0,0,1,-49.78,-59.66)">
            <text x="405.46px" y="65.36px" style="font-family:'Arial-BoldMT', 'Arial', sans-serif;font-weight:700;font-size:4.56px;">D<tspan x="408.877px 411.537px " y="65.36px 65.36px ">ex</tspan></text>
            <text x="414.197px" y="65.36px" style="font-family:'Arial-BoldMT', 'Arial', sans-serif;font-weight:700;font-size:4.56px;">t</text>
            <text x="415.715px" y="65.36px" style="font-family:'Arial-BoldMT', 'Arial', sans-serif;font-weight:700;font-size:4.56px;">r<tspan x="417.615px 420.275px " y="65.36px 65.36px ">an</tspan></text>
        </g>
        <g transform="matrix(1,0,0,1,-49.78,-59.66)">
            <text x="448.4px" y="65.36px" style="font-family:'Arial-BoldMT', 'Arial', sans-serif;font-weight:700;font-size:4.56px;">M</text>
            <text x="452.2px" y="65.36px" style="font-family:'Arial-BoldMT', 'Arial', sans-serif;font-weight:700;font-size:4.56px;">u</text>
            <text x="454.86px" y="65.36px" style="font-family:'Arial-BoldMT', 'Arial', sans-serif;font-weight:700;font-size:4.56px;">c</text>
            <text x="457.52px" y="65.36px" style="font-family:'Arial-BoldMT', 'Arial', sans-serif;font-weight:700;font-size:4.56px;">i<tspan x="458.661px " y="65.36px ">n</tspan></text>
        </g>
        <g transform="matrix(1,0,0,1,-49.78,-59.66)">
            <text x="490.58px" y="65.36px" style="font-family:'Arial-BoldMT', 'Arial', sans-serif;font-weight:700;font-size:4.56px;">M</text>
            <text x="494.38px" y="65.36px" style="font-family:'Arial-BoldMT', 'Arial', sans-serif;font-weight:700;font-size:4.56px;">C<tspan x="497.801px " y="65.36px ">F</tspan></text>
        </g>
        <g transform="matrix(1,0,0,1,-49.78,-59.66)">
            <text x="87.4px" y="72.58px" style="font-family:'Arial-BoldMT', 'Arial', sans-serif;font-weight:700;font-size:6.08px;">1</text>
        </g>
        <g transform="matrix(1,0,0,1,-49.78,-59.66)">
            <text x="128.06px" y="72.58px" style="font-family:'Arial-BoldMT', 'Arial', sans-serif;font-weight:700;font-size:6.08px;">2</text>
        </g>
        <g transform="matrix(1,0,0,1,-49.78,-59.66)">
            <text x="168.72px" y="72.58px" style="font-family:'Arial-BoldMT', 'Arial', sans-serif;font-weight:700;font-size:6.08px;">3</text>
        </g>
        <g transform="matrix(1,0,0,1,-49.78,-59.66)">
            <text x="209.38px" y="72.58px" style="font-family:'Arial-BoldMT', 'Arial', sans-serif;font-weight:700;font-size:6.08px;">4</text>
        </g>
        <g transform="matrix(1,0,0,1,-49.78,-59.66)">
            <text x="250.04px" y="72.58px" style="font-family:'Arial-BoldMT', 'Arial', sans-serif;font-weight:700;font-size:6.08px;">5</text>
        </g>
        <g transform="matrix(1,0,0,1,-49.78,-59.66)">
            <text x="290.7px" y="72.58px" style="font-family:'Arial-BoldMT', 'Arial', sans-serif;font-weight:700;font-size:6.08px;">6</text>
        </g>
        <g transform="matrix(1,0,0,1,-49.78,-59.66)">
            <text x="331.36px" y="72.58px" style="font-family:'Arial-BoldMT', 'Arial', sans-serif;font-weight:700;font-size:6.08px;">7</text>
        </g>
        <g transform="matrix(1,0,0,1,-49.78,-59.66)">
            <text x="372.02px" y="72.58px" style="font-family:'Arial-BoldMT', 'Arial', sans-serif;font-weight:700;font-size:6.08px;">8</text>
        </g>
        <g transform="matrix(1,0,0,1,-49.78,-59.66)">
            <text x="412.68px" y="72.58px" style="font-family:'Arial-BoldMT', 'Arial', sans-serif;font-weight:700;font-size:6.08px;">9</text>
        </g>
        <g transform="matrix(1,0,0,1,-49.78,-59.66)">
            <text x="451.44px" y="72.58px" style="font-family:'Arial-BoldMT', 'Arial', sans-serif;font-weight:700;font-size:6.08px;">10</text>
        </g>
        <g transform="matrix(1,0,0,1,-49.78,-59.66)">
            <text x="492.1px" y="72.58px" style="font-family:'Arial-BoldMT', 'Arial', sans-serif;font-weight:700;font-size:6.08px;">11</text>
        </g>
        <g transform="matrix(1,0,0,1,-49.78,-59.66)">
            <text x="532.76px" y="72.58px" style="font-family:'Arial-BoldMT', 'Arial', sans-serif;font-weight:700;font-size:6.08px;">12</text>
        </g>
        <g transform="matrix(1,0,0,1,-49.78,-59.66)">
            <text x="57px" y="79.42px" style="font-family:'Arial-BoldMT', 'Arial', sans-serif;font-weight:700;font-size:6.08px;">A</text>
            <text x="57px" y="86.64px" style="font-family:'Arial-BoldMT', 'Arial', sans-serif;font-weight:700;font-size:6.08px;">B</text>
        </g>
        <g transform="matrix(1,0,0,1,-49.78,-59.66)">
            <text x="81.32px" y="86.64px" style="font-family:'Arial-BoldMT', 'Arial', sans-serif;font-weight:700;font-size:4.56px;">j</text>
            <text x="82.46px" y="86.64px" style="font-family:'Arial-BoldMT', 'Arial', sans-serif;font-weight:700;font-size:4.56px;">x<tspan x="85.118px " y="86.64px ">e</tspan></text>
            <text x="87.777px" y="86.64px" style="font-family:'Arial-BoldMT', 'Arial', sans-serif;font-weight:700;font-size:4.56px;">.</text>
            <text x="88.917px" y="86.64px" style="font-family:'Arial-BoldMT', 'Arial', sans-serif;font-weight:700;font-size:4.56px;">0<tspan x="91.575px 94.234px " y="86.64px 86.64px ">66</tspan></text>
        </g>
        <g transform="matrix(1,0,0,1,-49.78,-59.66)">
            <text x="57px" y="93.48px" style="font-family:'Arial-BoldMT', 'Arial', sans-serif;font-weight:700;font-size:6.08px;">C</text>
            <text x="57px" y="100.32px" style="font-family:'Arial-BoldMT', 'Arial', sans-serif;font-weight:700;font-size:6.08px;">D</text>
            <text x="57.38px" y="107.54px" style="font-family:'Arial-BoldMT', 'Arial', sans-serif;font-weight:700;font-size:6.08px;">E</text>
        </g>
        <g transform="matrix(1,0,0,1,-49.78,-59.66)">
            <text x="81.32px" y="107.54px" style="font-family:'Arial-BoldMT', 'Arial', sans-serif;font-weight:700;font-size:4.56px;">j</text>
            <text x="82.46px" y="107.54px" style="font-family:'Arial-BoldMT', 'Arial', sans-serif;font-weight:700;font-size:4.56px;">x<tspan x="85.118px " y="107.54px ">e</tspan></text>
            <text x="87.777px" y="107.54px" style="font-family:'Arial-BoldMT', 'Arial', sans-serif;font-weight:700;font-size:4.56px;">.</text>
            <text x="88.917px" y="107.54px" style="font-family:'Arial-BoldMT', 'Arial', sans-serif;font-weight:700;font-size:4.56px;">0<tspan x="91.575px 94.234px " y="107.54px 107.54px ">72</tspan></text>
        </g>
        <g transform="matrix(1,0,0,1,-49.78,-59.66)">
            <text x="57.38px" y="114.38px" style="font-family:'Arial-BoldMT', 'Arial', sans-serif;font-weight:700;font-size:6.08px;">F</text>
            <text x="57px" y="121.22px" style="font-family:'Arial-BoldMT', 'Arial', sans-serif;font-weight:700;font-size:6.08px;">G</text>
            <text x="57px" y="128.44px" style="font-family:'Arial-BoldMT', 'Arial', sans-serif;font-weight:700;font-size:6.08px;">H</text>
        </g>
        <g transform="matrix(1,0,0,1,-49.78,-59.66)">
            <text x="166.82px" y="140.22px" style="font-family:'ArialMT', 'Arial', sans-serif;font-size:4.56px;">J</text>
            <text x="169.1px" y="140.22px" style="font-family:'ArialMT', 'Arial', sans-serif;font-size:4.56px;">a<tspan x="171.76px " y="140.22px ">x</tspan></text>
        </g>
        <g transform="matrix(1,0,0,1,-49.78,-59.66)">
            <text x="203.68px" y="140.22px" style="font-family:'ArialMT', 'Arial', sans-serif;font-size:4.56px;">E</text>
            <text x="206.72px" y="140.22px" style="font-family:'ArialMT', 'Arial', sans-serif;font-size:4.56px;">n</text>
            <text x="209.38px" y="140.22px" style="font-family:'ArialMT', 'Arial', sans-serif;font-size:4.56px;">v</text>
            <text x="211.66px" y="140.22px" style="font-family:'ArialMT', 'Arial', sans-serif;font-size:4.56px;">i<tspan x="212.798px 215.46px " y="140.22px 140.22px ">go</tspan></text>
        </g>
        <g transform="matrix(1,0,0,1,-49.78,-59.66)">
            <text x="232.18px" y="140.22px" style="font-family:'ArialMT', 'Arial', sans-serif;font-size:4.56px;">S</text>
            <text x="235.22px" y="140.22px" style="font-family:'ArialMT', 'Arial', sans-serif;font-size:4.56px;">t</text>
            <text x="236.359px" y="140.22px" style="font-family:'ArialMT', 'Arial', sans-serif;font-size:4.56px;">o<tspan x="239.02px 241.682px " y="140.22px 140.22px ">ol</tspan></text>
            <text x="244.213px" y="140.22px" style="font-family:'ArialMT', 'Arial', sans-serif;font-size:4.56px;">I</text>
            <text x="245.352px" y="140.22px" style="font-family:'ArialMT', 'Arial', sans-serif;font-size:4.56px;">n<tspan x="248.014px 250.675px 253.337px " y="140.22px 140.22px 140.22px ">put</tspan></text>
        </g>
        <g transform="matrix(1,0,0,1,-49.78,-59.66)">
            <text x="162.64px" y="146.3px" style="font-family:'Arial-BoldMT', 'Arial', sans-serif;font-weight:700;font-size:4.56px;">j</text>
            <text x="163.78px" y="146.3px" style="font-family:'Arial-BoldMT', 'Arial', sans-serif;font-weight:700;font-size:4.56px;">x<tspan x="166.438px " y="146.3px ">e</tspan></text>
            <text x="169.097px" y="146.3px" style="font-family:'Arial-BoldMT', 'Arial', sans-serif;font-weight:700;font-size:4.56px;">.</text>
            <text x="170.237px" y="146.3px" style="font-family:'Arial-BoldMT', 'Arial', sans-serif;font-weight:700;font-size:4.56px;">0<tspan x="172.895px 175.554px " y="146.3px 146.3px ">66</tspan></text>
        </g>
        <g transform="matrix(1,0,0,1,-49.78,-59.66)">
            <text x="203.3px" y="146.3px" style="font-family:'Arial-BoldMT', 'Arial', sans-serif;font-weight:700;font-size:4.56px;">j</text>
            <text x="204.44px" y="146.3px" style="font-family:'Arial-BoldMT', 'Arial', sans-serif;font-weight:700;font-size:4.56px;">x<tspan x="207.098px " y="146.3px ">e</tspan></text>
            <text x="209.757px" y="146.3px" style="font-family:'Arial-BoldMT', 'Arial', sans-serif;font-weight:700;font-size:4.56px;">.</text>
            <text x="210.897px" y="146.3px" style="font-family:'Arial-BoldMT', 'Arial', sans-serif;font-weight:700;font-size:4.56px;">0<tspan x="213.555px 216.214px " y="146.3px 146.3px ">72</tspan></text>
        </g>
        <g transform="matrix(1,0,0,1,-49.78,-59.66)">
            <text x="232.18px" y="146.3px" style="font-family:'ArialMT', 'Arial', sans-serif;font-size:4.56px;">5<tspan x="234.84px 237.5px 240.16px 241.55px " y="146.3px 146.3px 146.3px 146.3px ">uL o</tspan></text>
            <text x="244.21px" y="146.3px" style="font-family:'ArialMT', 'Arial', sans-serif;font-size:4.56px;">f</text>
            <text x="246.493px" y="146.3px" style="font-family:'ArialMT', 'Arial', sans-serif;font-size:4.56px;">1<tspan x="249.159px 251.824px " y="146.3px 146.3px ">0^</tspan></text>
            <text x="254.094px" y="146.3px" style="font-family:'ArialMT', 'Arial', sans-serif;font-size:4.56px;">-1</text>
        </g>
        <g transform="matrix(1,0,0,1,-49.78,-59.66)">
            <text x="204.06px" y="158.46px" style="font-family:'ArialMT', 'Arial', sans-serif;font-size:4.56px;">M</text>
            <text x="207.86px" y="158.46px" style="font-family:'ArialMT', 'Arial', sans-serif;font-size:4.56px;">G</text>
            <text x="211.281px" y="158.46px" style="font-family:'ArialMT', 'Arial', sans-serif;font-size:4.56px;">AM</text>
        </g>
        <g transform="matrix(1,0,0,1,-49.78,-689.4)">
            <rect x="50.16" y="710.68" width="17.86" height="0.38"/>
        </g>
        <g transform="matrix(1,0,0,1,-49.78,-711.44)">
            <rect x="68.4" y="711.44" width="0.38" height="20.9"/>
        </g>
        <g transform="matrix(1,0,0,1,-49.78,-711.06)">
            <rect x="109.06" y="711.44" width="0.38" height="20.52"/>
        </g>
        <g transform="matrix(1,0,0,1,-49.78,-711.06)">
            <rect x="149.72" y="711.44" width="0.38" height="20.52"/>
        </g>
        <g transform="matrix(1,0,0,1,-49.78,-711.06)">
            <rect x="190.38" y="711.44" width="0.38" height="20.52"/>
        </g>
        <g transform="matrix(1,0,0,1,-49.78,-711.06)">
            <rect x="231.04" y="711.44" width="0.38" height="20.52"/>
        </g>
        <g transform="matrix(1,0,0,1,-49.78,-711.06)">
            <rect x="271.7" y="711.44" width="0.38" height="20.52"/>
        </g>
        <g transform="matrix(1,0,0,1,-49.78,-711.06)">
            <rect x="312.36" y="711.44" width="0.38" height="20.52"/>
        </g>
        <g transform="matrix(1,0,0,1,-49.78,-711.06)">
            <rect x="353.02" y="711.44" width="0.38" height="20.52"/>
        </g>
        <g transform="matrix(1,0,0,1,-49.78,-711.06)">
            <rect x="393.68" y="711.44" width="0.38" height="20.52"/>
        </g>
        <g transform="matrix(1,0,0,1,-49.78,-711.06)">
            <rect x="434.34" y="711.44" width="0.38" height="20.52"/>
        </g>
        <g transform="matrix(1,0,0,1,-49.78,-711.06)">
            <rect x="475" y="711.44" width="0.38" height="20.52"/>
        </g>
        <g transform="matrix(1,0,0,1,-49.78,-689.78)">
            <rect x="68.78" y="710.68" width="447.26" height="0.76"/>
        </g>
        <g transform="matrix(1,0,0,1,-49.78,-711.06)">
            <rect x="515.66" y="711.44" width="0.38" height="20.52"/>
        </g>
        <g transform="matrix(1,0,0,1,-49.78,-675.72)">
            <rect x="50.16" y="703.84" width="17.86" height="0.38"/>
        </g>
        <g transform="matrix(1,0,0,1,-49.78,-675.72)">
            <rect x="68.78" y="703.84" width="39.9" height="0.38"/>
        </g>
        <g transform="matrix(1,0,0,1,-49.78,-675.72)">
            <rect x="109.44" y="703.84" width="39.9" height="0.38"/>
        </g>
        <g transform="matrix(1,0,0,1,-49.78,-675.72)">
            <rect x="150.1" y="703.84" width="39.9" height="0.38"/>
        </g>
        <g transform="matrix(1,0,0,1,-49.78,-675.72)">
            <rect x="190.76" y="703.84" width="39.9" height="0.38"/>
        </g>
        <g transform="matrix(1,0,0,1,-49.78,-675.72)">
            <rect x="231.42" y="703.84" width="39.9" height="0.38"/>
        </g>
        <g transform="matrix(1,0,0,1,-49.78,-675.72)">
            <rect x="272.08" y="703.84" width="39.9" height="0.38"/>
        </g>
        <g transform="matrix(1,0,0,1,-49.78,-675.72)">
            <rect x="312.74" y="703.84" width="39.9" height="0.38"/>
        </g>
        <g transform="matrix(1,0,0,1,-49.78,-675.72)">
            <rect x="353.4" y="703.84" width="39.9" height="0.38"/>
        </g>
        <g transform="matrix(1,0,0,1,-49.78,-675.72)">
            <rect x="394.06" y="703.84" width="39.9" height="0.38"/>
        </g>
        <g transform="matrix(1,0,0,1,-49.78,-675.72)">
            <rect x="434.72" y="703.84" width="39.9" height="0.38"/>
        </g>
        <g transform="matrix(1,0,0,1,-49.78,-675.72)">
            <rect x="475.38" y="703.84" width="39.9" height="0.38"/>
        </g>
        <g transform="matrix(1,0,0,1,-49.78,-662.04)">
            <rect x="50.16" y="697" width="17.86" height="0.38"/>
        </g>
        <g transform="matrix(1,0,0,1,-49.78,-662.04)">
            <rect x="68.78" y="697" width="39.9" height="0.38"/>
        </g>
        <g transform="matrix(1,0,0,1,-49.78,-662.04)">
            <rect x="109.44" y="697" width="39.9" height="0.38"/>
        </g>
        <g transform="matrix(1,0,0,1,-49.78,-662.04)">
            <rect x="150.1" y="697" width="39.9" height="0.38"/>
        </g>
        <g transform="matrix(1,0,0,1,-49.78,-662.04)">
            <rect x="190.76" y="697" width="39.9" height="0.38"/>
        </g>
        <g transform="matrix(1,0,0,1,-49.78,-662.04)">
            <rect x="231.42" y="697" width="39.9" height="0.38"/>
        </g>
        <g transform="matrix(1,0,0,1,-49.78,-662.04)">
            <rect x="272.08" y="697" width="39.9" height="0.38"/>
        </g>
        <g transform="matrix(1,0,0,1,-49.78,-662.04)">
            <rect x="312.74" y="697" width="39.9" height="0.38"/>
        </g>
        <g transform="matrix(1,0,0,1,-49.78,-662.04)">
            <rect x="353.4" y="697" width="39.9" height="0.38"/>
        </g>
        <g transform="matrix(1,0,0,1,-49.78,-662.04)">
            <rect x="394.06" y="697" width="39.9" height="0.38"/>
        </g>
        <g transform="matrix(1,0,0,1,-49.78,-662.04)">
            <rect x="434.72" y="697" width="39.9" height="0.38"/>
        </g>
        <g transform="matrix(1,0,0,1,-49.78,-662.04)">
            <rect x="475.38" y="697" width="39.9" height="0.38"/>
        </g>
        <g transform="matrix(1,0,0,1,-49.78,-647.6)">
            <rect x="50.16" y="689.78" width="17.86" height="0.38"/>
        </g>
        <g transform="matrix(1,0,0,1,-49.78,-647.98)">
            <rect x="68.78" y="689.78" width="447.26" height="0.76"/>
        </g>
        <g transform="matrix(1,0,0,1,-49.78,-633.92)">
            <rect x="50.16" y="682.94" width="17.86" height="0.38"/>
        </g>
        <g transform="matrix(1,0,0,1,-49.78,-633.92)">
            <rect x="68.78" y="682.94" width="39.9" height="0.38"/>
        </g>
        <g transform="matrix(1,0,0,1,-49.78,-633.92)">
            <rect x="109.44" y="682.94" width="39.9" height="0.38"/>
        </g>
        <g transform="matrix(1,0,0,1,-49.78,-633.92)">
            <rect x="150.1" y="682.94" width="39.9" height="0.38"/>
        </g>
        <g transform="matrix(1,0,0,1,-49.78,-633.92)">
            <rect x="190.76" y="682.94" width="39.9" height="0.38"/>
        </g>
        <g transform="matrix(1,0,0,1,-49.78,-633.92)">
            <rect x="231.42" y="682.94" width="39.9" height="0.38"/>
        </g>
        <g transform="matrix(1,0,0,1,-49.78,-633.92)">
            <rect x="272.08" y="682.94" width="39.9" height="0.38"/>
        </g>
        <g transform="matrix(1,0,0,1,-49.78,-633.92)">
            <rect x="312.74" y="682.94" width="39.9" height="0.38"/>
        </g>
        <g transform="matrix(1,0,0,1,-49.78,-633.92)">
            <rect x="353.4" y="682.94" width="39.9" height="0.38"/>
        </g>
        <g transform="matrix(1,0,0,1,-49.78,-633.92)">
            <rect x="394.06" y="682.94" width="39.9" height="0.38"/>
        </g>
        <g transform="matrix(1,0,0,1,-49.78,-633.92)">
            <rect x="434.72" y="682.94" width="39.9" height="0.38"/>
        </g>
        <g transform="matrix(1,0,0,1,-49.78,-633.92)">
            <rect x="475.38" y="682.94" width="39.9" height="0.38"/>
        </g>
        <g transform="matrix(1,0,0,1,-49.78,-620.24)">
            <rect x="50.16" y="676.1" width="17.86" height="0.38"/>
        </g>
        <g transform="matrix(1,0,0,1,-49.78,-620.24)">
            <rect x="68.78" y="676.1" width="39.9" height="0.38"/>
        </g>
        <g transform="matrix(1,0,0,1,-49.78,-620.24)">
            <rect x="109.44" y="676.1" width="39.9" height="0.38"/>
        </g>
        <g transform="matrix(1,0,0,1,-49.78,-620.24)">
            <rect x="150.1" y="676.1" width="39.9" height="0.38"/>
        </g>
        <g transform="matrix(1,0,0,1,-49.78,-620.24)">
            <rect x="190.76" y="676.1" width="39.9" height="0.38"/>
        </g>
        <g transform="matrix(1,0,0,1,-49.78,-620.24)">
            <rect x="231.42" y="676.1" width="39.9" height="0.38"/>
        </g>
        <g transform="matrix(1,0,0,1,-49.78,-620.24)">
            <rect x="272.08" y="676.1" width="39.9" height="0.38"/>
        </g>
        <g transform="matrix(1,0,0,1,-49.78,-620.24)">
            <rect x="312.74" y="676.1" width="39.9" height="0.38"/>
        </g>
        <g transform="matrix(1,0,0,1,-49.78,-620.24)">
            <rect x="353.4" y="676.1" width="39.9" height="0.38"/>
        </g>
        <g transform="matrix(1,0,0,1,-49.78,-620.24)">
            <rect x="394.06" y="676.1" width="39.9" height="0.38"/>
        </g>
        <g transform="matrix(1,0,0,1,-49.78,-620.24)">
            <rect x="434.72" y="676.1" width="39.9" height="0.38"/>
        </g>
        <g transform="matrix(1,0,0,1,-49.78,-620.24)">
            <rect x="475.38" y="676.1" width="39.9" height="0.38"/>
        </g>
        <g transform="matrix(1,0,0,1,-49.78,-605.8)">
            <rect x="50.16" y="668.88" width="17.86" height="0.38"/>
        </g>
        <g transform="matrix(1,0,0,1,-49.78,-647.98)">
            <rect x="68.02" y="668.88" width="0.76" height="42.56"/>
        </g>
        <g transform="matrix(1,0,0,1,-49.78,-647.22)">
            <rect x="108.68" y="668.88" width="0.76" height="41.8"/>
        </g>
        <g transform="matrix(1,0,0,1,-49.78,-647.22)">
            <rect x="149.34" y="668.88" width="0.76" height="41.8"/>
        </g>
        <g transform="matrix(1,0,0,1,-49.78,-647.22)">
            <rect x="190" y="668.88" width="0.76" height="41.8"/>
        </g>
        <g transform="matrix(1,0,0,1,-49.78,-647.22)">
            <rect x="230.66" y="668.88" width="0.76" height="41.8"/>
        </g>
        <g transform="matrix(1,0,0,1,-49.78,-647.22)">
            <rect x="271.32" y="668.88" width="0.76" height="41.8"/>
        </g>
        <g transform="matrix(1,0,0,1,-49.78,-647.22)">
            <rect x="311.98" y="668.88" width="0.76" height="41.8"/>
        </g>
        <g transform="matrix(1,0,0,1,-49.78,-647.22)">
            <rect x="352.64" y="668.88" width="0.76" height="41.8"/>
        </g>
        <g transform="matrix(1,0,0,1,-49.78,-647.22)">
            <rect x="393.3" y="668.88" width="0.76" height="41.8"/>
        </g>
        <g transform="matrix(1,0,0,1,-49.78,-647.22)">
            <rect x="433.96" y="668.88" width="0.76" height="41.8"/>
        </g>
        <g transform="matrix(1,0,0,1,-49.78,-647.22)">
            <rect x="474.62" y="668.88" width="0.76" height="41.8"/>
        </g>
        <g transform="matrix(1,0,0,1,-49.78,-606.18)">
            <rect x="68.78" y="668.88" width="447.26" height="0.76"/>
        </g>
        <g transform="matrix(1,0,0,1,-49.78,-647.22)">
            <rect x="515.28" y="668.88" width="0.76" height="41.8"/>
        </g>
        <g transform="matrix(1,0,0,1,-49.78,-598.58)">
            <rect x="149.72" y="662.04" width="0.38" height="6.84"/>
        </g>
        <g transform="matrix(1,0,0,1,-49.78,-598.58)">
            <rect x="190.38" y="662.04" width="0.38" height="6.84"/>
        </g>
        <g transform="matrix(1,0,0,1,-49.78,-598.58)">
            <rect x="231.04" y="662.04" width="0.38" height="6.84"/>
        </g>
        <g transform="matrix(1,0,0,1,-49.78,-598.58)">
            <rect x="271.7" y="662.04" width="0.38" height="6.84"/>
        </g>
        <g transform="matrix(1,0,0,1,-49.78,-573.5)">
            <rect x="190" y="649.88" width="0.76" height="6.08"/>
        </g>
        <g transform="matrix(1,0,0,1,-49.78,-573.5)">
            <rect x="230.66" y="649.88" width="0.76" height="6.08"/>
        </g>
        <g transform="matrix(1,0,0,1,-49.78,-568.18)">
            <rect x="149.34" y="643.8" width="0.76" height="12.92"/>
        </g>
        <g transform="matrix(1,0,0,1,-49.78,-562.1)">
            <rect x="190.38" y="644.56" width="0.38" height="5.32"/>
        </g>
        <g transform="matrix(1,0,0,1,-49.78,-562.1)">
            <rect x="231.04" y="644.56" width="0.38" height="5.32"/>
        </g>
        <g transform="matrix(1,0,0,1,-49.78,-598.58)">
            <rect x="68.4" y="662.04" width="0.38" height="6.84"/>
        </g>
        <g transform="matrix(1,0,0,1,-49.78,-598.58)">
            <rect x="109.06" y="662.04" width="0.38" height="6.84"/>
        </g>
        <g transform="matrix(1,0,0,1,-49.78,-537.78)">
            <rect x="149.34" y="631.64" width="0.76" height="6.84"/>
        </g>
        <g transform="matrix(1,0,0,1,-49.78,-537.78)">
            <rect x="190.38" y="632.4" width="0.38" height="5.32"/>
        </g>
        <g transform="matrix(1,0,0,1,-49.78,-537.02)">
            <rect x="230.66" y="631.64" width="0.76" height="6.08"/>
        </g>
        <g transform="matrix(1,0,0,1,-49.78,-567.42)">
            <rect x="271.32" y="643.8" width="0.76" height="12.16"/>
        </g>
        <g transform="matrix(1,0,0,1,-49.78,-598.58)">
            <rect x="312.36" y="662.04" width="0.38" height="6.84"/>
        </g>
        <g transform="matrix(1,0,0,1,-49.78,-598.58)">
            <rect x="353.02" y="662.04" width="0.38" height="6.84"/>
        </g>
        <g transform="matrix(1,0,0,1,-49.78,-598.58)">
            <rect x="393.68" y="662.04" width="0.38" height="6.84"/>
        </g>
        <g transform="matrix(1,0,0,1,-49.78,-598.58)">
            <rect x="434.34" y="662.04" width="0.38" height="6.84"/>
        </g>
        <g transform="matrix(1,0,0,1,-49.78,-598.58)">
            <rect x="475" y="662.04" width="0.38" height="6.84"/>
        </g>
        <g transform="matrix(1,0,0,1,-49.78,-598.58)">
            <rect x="515.66" y="662.04" width="0.38" height="6.84"/>
        </g>
        <g transform="matrix(1,0,0,1,-49.78,-654.44)">
            <rect x="556.32" y="662.04" width="0.38" height="62.7"/>
        </g>
        <g transform="matrix(1,0,0,1,-49.78,-647.98)">
            <rect x="49.78" y="662.04" width="0.38" height="56.24"/>
        </g>
        <g transform="matrix(1,0,0,1,-49.78,-731.96)">
            <rect x="68.78" y="731.96" width="447.26" height="0.38"/>
        </g>
        <g transform="matrix(1,0,0,1,-49.78,-717.52)">
            <rect x="68.78" y="724.74" width="487.92" height="0.38"/>
        </g>
        <g transform="matrix(1,0,0,1,-49.78,-703.84)">
            <rect x="50.16" y="717.9" width="506.54" height="0.38"/>
        </g>
        <g transform="matrix(1,0,0,1,-49.78,-689.4)">
            <rect x="516.04" y="710.68" width="40.66" height="0.38"/>
        </g>
        <g transform="matrix(1,0,0,1,-49.78,-675.72)">
            <rect x="516.04" y="703.84" width="40.66" height="0.38"/>
        </g>
        <g transform="matrix(1,0,0,1,-49.78,-662.04)">
            <rect x="516.04" y="697" width="40.66" height="0.38"/>
        </g>
        <g transform="matrix(1,0,0,1,-49.78,-647.6)">
            <rect x="516.04" y="689.78" width="40.66" height="0.38"/>
        </g>
        <g transform="matrix(1,0,0,1,-49.78,-633.92)">
            <rect x="516.04" y="682.94" width="40.66" height="0.38"/>
        </g>
        <g transform="matrix(1,0,0,1,-49.78,-620.24)">
            <rect x="516.04" y="676.1" width="40.66" height="0.38"/>
        </g>
        <g transform="matrix(1,0,0,1,-49.78,-605.8)">
            <rect x="516.04" y="668.88" width="40.66" height="0.38"/>
        </g>
        <g transform="matrix(1,0,0,1,-49.78,-592.12)">
            <rect x="50.16" y="662.04" width="506.54" height="0.38"/>
        </g>
        <g transform="matrix(1,0,0,1,-49.78,-580.34)">
            <rect x="150.1" y="655.96" width="121.98" height="0.76"/>
        </g>
        <g transform="matrix(1,0,0,1,-49.78,-568.18)">
            <rect x="150.1" y="649.88" width="121.98" height="0.76"/>
        </g>
        <g transform="matrix(1,0,0,1,-49.78,-556.02)">
            <rect x="150.1" y="643.8" width="121.98" height="0.76"/>
        </g>
        <g transform="matrix(1,0,0,1,-49.78,-543.86)">
            <rect x="150.1" y="637.72" width="81.32" height="0.76"/>
        </g>
        <g transform="matrix(1,0,0,1,-49.78,-531.7)">
            <rect x="150.1" y="631.64" width="81.32" height="0.76"/>
        </g>
    </g>
</svg>
